<svg width="157" height="34" fill="none" xmlns="http://www.w3.org/2000/svg"><path d="M71.934 4.196l-3.409 9.343-3.408-9.343h-3.522l5.094 13.963h3.673L75.46 4.196h-3.525zM2.096 6.192a6.537 6.537 0 00-2.094 4.974 6.686 6.686 0 002.094 5.018c1.396 1.305 3.388 1.966 5.916 1.966H9.74v-3.27H8.01c-2.932 0-4.612-1.35-4.612-3.702 0-2.353 1.68-3.702 4.613-3.702H9.74v-3.28H8.01c-2.542 0-4.533.673-5.915 1.996zM40.753 4.19a6.956 6.956 0 00-4.919 2.049 7.006 7.006 0 00-2.04 4.936 7.006 7.006 0 002.04 4.938 6.956 6.956 0 004.92 2.05h6.942v-7.38a6.995 6.995 0 00-2.165-4.681 6.947 6.947 0 00-4.778-1.912zm3.79 6.985v3.804h-3.79a3.784 3.784 0 01-2.68-1.114 3.81 3.81 0 010-5.38 3.784 3.784 0 015.36 0 3.81 3.81 0 011.11 2.69z" fill="#fff"/><path d="M154.533 13.2c-.656 0-1.284.26-1.748.726a2.484 2.484 0 001.748 4.236H157V15.53a2.48 2.48 0 00-.773-1.656 2.463 2.463 0 00-1.694-.673z" fill="#7F5EF3"/><path d="M15.275 5.015l-.178.231-.537-1.073h-2.915v13.99h3.312V8.777a1.394 1.394 0 01.312-.992c.213-.222.583-.33 1.1-.33h1.92V4.173h-1.078c-.88.017-1.51.292-1.936.842zm40.282 2.426V4.164h-2.665V0h-3.339v14.209a3.957 3.957 0 001.153 2.787 3.93 3.93 0 002.778 1.157h2.073v-3.315h-1.482a1.185 1.185 0 01-1.183-1.19V7.44h2.665zm5.132-3.221h-3.292v13.94h3.292V4.22zm87.753 1.562a5.82 5.82 0 00-4.047-1.586 5.802 5.802 0 00-4.059 1.589l-.053.052-.055-.055a5.803 5.803 0 00-4.047-1.586 5.87 5.87 0 00-2.438.518v-.495h-3.292v13.943h3.292v-7.713c.035-1.984.892-3.078 2.438-3.078 1.545 0 2.467 1.155 2.475 3.168v7.623h3.286v-7.628c0-2.049.875-3.166 2.444-3.166s2.475 1.17 2.475 3.192v7.608h3.286V10.56c.009-2.121-.568-3.73-1.705-4.778zM99.058 7.441V4.164h-2.666V0h-3.335v14.209c0 1.045.415 2.048 1.15 2.787a3.927 3.927 0 002.777 1.157h2.074v-3.315h-1.479a1.188 1.188 0 01-1.186-1.19V7.44h2.665zm-14.556 6.733a3.739 3.739 0 01-2.024.796h-.312a3.804 3.804 0 01-3.294-1.923h9.995l.032-.125c.138-.542.21-1.098.216-1.657v-.825l-.024.02a6.973 6.973 0 00-.766-2.53l-.015-.03a1.558 1.558 0 00-.067-.12l-.041-.07a1.315 1.315 0 00-.07-.123l-.04-.067a6.91 6.91 0 00-2.523-2.44 6.88 6.88 0 00-3.391-.884 6.988 6.988 0 00-5.047 2.205 7.035 7.035 0 00-1.904 4.689v.825l.026-.02c.09.887.35 1.748.767 2.536v.024l.07.123.04.073c.021.04.044.079.068.117l.04.07a6.918 6.918 0 002.524 2.44 6.889 6.889 0 003.393.884c.148 0 .306 0 .495-.02a6.956 6.956 0 004.106-1.756l-2.24-2.247-.014.035zm-2.65-6.789h.314a3.755 3.755 0 012.163.675 3.776 3.776 0 011.386 1.798h-7.103a3.803 3.803 0 011.261-1.71 3.783 3.783 0 011.978-.763zm-53.858 6.789a3.739 3.739 0 01-2.023.796h-.313a3.804 3.804 0 01-3.294-1.923h9.995l.032-.125c.138-.542.21-1.098.216-1.657v-.825l-.023.02a6.973 6.973 0 00-.767-2.53V7.9a1.592 1.592 0 00-.067-.12l-.038-.07a2.734 2.734 0 00-.073-.123l-.041-.067a6.91 6.91 0 00-2.522-2.44 6.88 6.88 0 00-3.391-.884 6.988 6.988 0 00-5.047 2.205 7.036 7.036 0 00-1.904 4.689v.825l.026-.02c.09.887.35 1.748.767 2.536v.024l.07.123.04.073c.02.04.044.079.067.117l.041.07a6.918 6.918 0 002.524 2.44 6.888 6.888 0 003.392.884c.15 0 .292 0 .496-.02a6.956 6.956 0 004.105-1.756l-2.239-2.247-.029.035zm-2.65-6.789h.314a3.755 3.755 0 012.163.675 3.776 3.776 0 011.386 1.798h-7.103a3.82 3.82 0 011.263-1.707 3.8 3.8 0 011.977-.766zm96.285-3.195a6.954 6.954 0 00-4.913 2.052 7.004 7.004 0 00-2.038 4.933 7.003 7.003 0 002.04 4.938 6.956 6.956 0 004.92 2.05h6.942v-7.38a6.998 6.998 0 00-2.168-4.684 6.947 6.947 0 00-4.783-1.909zm3.79 6.985v3.804h-3.79a3.784 3.784 0 01-2.68-1.114 3.81 3.81 0 010-5.38 3.782 3.782 0 015.362 0 3.81 3.81 0 011.111 2.69h-.003zm-16.55 2.999a3.73 3.73 0 01-2.02.796h-.315a3.794 3.794 0 01-3.292-1.923h9.992l.032-.125a6.958 6.958 0 00.216-1.657v-.825l-.026.02a6.925 6.925 0 00-.767-2.53V7.9a1.557 1.557 0 00-.067-.12l-.038-.07-.07-.123-.041-.067a6.892 6.892 0 00-5.916-3.324c-.149 0-.306 0-.496.02a6.969 6.969 0 00-4.553 2.182 7.018 7.018 0 00-1.9 4.692v.825l.027-.02c.09.887.351 1.748.767 2.536l.015.024a.997.997 0 00.067.123l.04.073.067.117.044.07a6.908 6.908 0 002.522 2.441 6.88 6.88 0 003.391.883c.152 0 .309 0 .496-.02a6.95 6.95 0 004.106-1.756l-2.24-2.247-.041.035zm-2.65-6.789h.315a3.768 3.768 0 013.548 2.473h-7.103a3.823 3.823 0 011.265-1.708 3.8 3.8 0 011.978-.765h-.003zM56.717 30.172h1.303a3.15 3.15 0 01-.3.791 3.3 3.3 0 01-.547.766 2.46 2.46 0 01-.899.61 3.22 3.22 0 01-1.25.233c-.948 0-1.73-.31-2.346-.934-.608-.623-.912-1.436-.912-2.44 0-1.003.304-1.816.912-2.44.617-.622 1.398-.934 2.345-.934.869 0 1.55.247 2.046.74.495.485.812 1.017.951 1.596h-1.303c-.278-.778-.842-1.168-1.694-1.168a1.83 1.83 0 00-1.407.61c-.365.398-.547.93-.547 1.596 0 .667.182 1.203.547 1.61.373.398.843.597 1.407.597.47 0 .847-.126 1.134-.377.287-.25.473-.536.56-.856zm3.866.636c.374.398.843.597 1.407.597.565 0 1.03-.2 1.395-.597.373-.407.56-.943.56-1.61 0-.666-.187-1.198-.56-1.596-.365-.406-.83-.61-1.395-.61a1.83 1.83 0 00-1.407.61c-.365.398-.547.93-.547 1.596 0 .667.182 1.203.547 1.61zm3.74.83c-.608.623-1.386.934-2.333.934-.947 0-1.728-.31-2.345-.934-.608-.623-.912-1.436-.912-2.44 0-1.003.304-1.816.912-2.44.617-.622 1.398-.934 2.345-.934.947 0 1.725.312 2.333.935.617.623.925 1.436.925 2.44 0 1.003-.308 1.816-.925 2.44zm1.577-1.272h1.238c0 .277.13.532.391.766.27.225.617.337 1.043.337.46 0 .812-.086 1.055-.26.252-.18.378-.397.378-.648 0-.268-.117-.484-.352-.649-.234-.173-.573-.26-1.016-.26h-.652v-1.038h.652c.373 0 .673-.082.899-.246.226-.164.339-.363.339-.597 0-.242-.118-.441-.352-.597-.226-.164-.543-.247-.951-.247-.435 0-.76.091-.978.273a.872.872 0 00-.325.7h-1.303c0-.57.234-1.059.703-1.466.478-.406 1.112-.61 1.903-.61.825 0 1.463.182 1.915.545.46.364.69.831.69 1.402 0 .433-.164.787-.494 1.064a1.74 1.74 0 01-.483.273v.064c.739.2 1.108.684 1.108 1.454 0 .554-.239 1.016-.717 1.388-.477.372-1.15.558-2.02.558-.842 0-1.498-.211-1.967-.635a2.033 2.033 0 01-.704-1.57zM71.573 34v-2.725h.13c.556 0 .86-.325.913-.973l.39-4.348h4.626v5.32h.912V34h-1.303v-1.557h-4.365V34h-1.303zm1.955-2.725h2.801v-4.153h-2.15l-.286 3.244c-.035.312-.105.546-.209.701a.93.93 0 01-.156.208zm10.094 1.168l-.13-.714h-.065c-.13.164-.287.307-.47.428-.416.277-.912.416-1.485.416-.712 0-1.281-.187-1.707-.559-.425-.372-.638-.856-.638-1.453 0-.666.221-1.19.664-1.57.452-.38 1.12-.571 2.007-.571h1.629v-.13c0-.424-.122-.757-.365-1-.243-.241-.578-.363-1.004-.363-.417 0-.738.096-.964.286-.226.182-.36.39-.404.623h-1.303c.035-.571.291-1.047.77-1.428.477-.389 1.111-.584 1.901-.584.843 0 1.499.221 1.968.662.47.441.704 1.043.704 1.804v4.153h-1.108zm-.195-2.725v-.26h-1.564c-.478 0-.838.095-1.082.286a.922.922 0 00-.351.752c0 .303.1.54.3.714.2.173.49.26.872.26.591 0 1.043-.152 1.356-.455.312-.311.469-.744.469-1.297zm2.673 2.725v-6.489h1.303v2.596h3.062v-2.596h1.303v6.489h-1.303v-2.66h-3.062v2.66H86.1zm7.107 0v-6.489h1.303v4.672h.26l2.216-4.672h1.89v6.489h-1.304V27.77h-.26l-2.216 4.672h-1.889zm8.084-3.763h3.844c-.069-.528-.273-.952-.612-1.272-.339-.32-.765-.48-1.277-.48-.539 0-.973.16-1.303.48-.33.311-.547.735-.652 1.271zm3.518 1.881h1.369c-.191.52-.539.986-1.043 1.402-.495.406-1.125.61-1.889.61-.947 0-1.729-.312-2.346-.935-.608-.623-.912-1.436-.912-2.44 0-1.003.304-1.816.912-2.44.617-.622 1.399-.934 2.346-.934.886 0 1.629.303 2.228.909.599.605.899 1.362.899 2.27 0 .079-.013.234-.039.468l-.026.182h-5.017c.07.553.283.995.639 1.323.356.33.795.494 1.316.494.365 0 .686-.087.964-.26.287-.182.487-.398.599-.649zm10.108-.389h1.303a3.158 3.158 0 01-.3.791c-.13.26-.313.515-.547.766-.226.25-.526.454-.899.61a3.224 3.224 0 01-1.251.233c-.947 0-1.729-.31-2.346-.934-.608-.623-.912-1.436-.912-2.44 0-1.003.304-1.816.912-2.44.617-.622 1.399-.934 2.346-.934.868 0 1.55.247 2.045.74.496.485.813 1.017.952 1.596h-1.303c-.278-.778-.843-1.168-1.694-1.168-.565 0-1.034.204-1.408.61-.364.398-.547.93-.547 1.596 0 .667.183 1.203.547 1.61.374.398.843.597 1.408.597.469 0 .847-.126 1.133-.377.287-.25.474-.536.561-.856zm6.576 2.271l-.131-.714h-.065a2 2 0 01-.469.428c-.417.277-.912.416-1.485.416-.713 0-1.282-.187-1.707-.559-.426-.372-.639-.856-.639-1.453 0-.666.222-1.19.665-1.57.452-.38 1.12-.571 2.007-.571h1.628v-.13c0-.424-.121-.757-.365-1-.243-.241-.577-.363-1.003-.363-.417 0-.738.096-.964.286-.226.182-.361.39-.404.623h-1.303c.035-.571.291-1.047.769-1.428.478-.389 1.112-.584 1.902-.584.843 0 1.499.221 1.968.662.469.441.703 1.043.703 1.804v4.153h-1.107zm-.196-2.725v-.26h-1.563c-.478 0-.839.095-1.082.286a.923.923 0 00-.352.752c0 .303.1.54.3.714.2.173.491.26.873.26.591 0 1.043-.152 1.355-.455.313-.311.469-.744.469-1.297zm2.674 2.725v-6.489h1.303v4.672h.26l2.215-4.672h1.89v6.489h-1.303V27.77h-.261l-2.215 4.672h-1.889zm.912-9.279h1.042c.139.563.443.844.912.844.469 0 .773-.281.912-.844h1.043c-.035.52-.23.943-.587 1.272-.356.32-.812.48-1.368.48s-1.012-.16-1.368-.48c-.356-.329-.552-.753-.586-1.272zm7.693 9.279v-5.256h-2.15v-1.233h5.603v1.233h-2.15v5.256h-1.303zm5.504-1.635c.374.398.843.597 1.408.597.564 0 1.029-.2 1.394-.597.374-.407.56-.943.56-1.61 0-.666-.186-1.198-.56-1.596-.365-.406-.83-.61-1.394-.61-.565 0-1.034.204-1.408.61-.364.398-.547.93-.547 1.596 0 .667.183 1.203.547 1.61zm3.74.83c-.608.623-1.385.934-2.332.934-.947 0-1.729-.31-2.346-.934-.608-.623-.912-1.436-.912-2.44 0-1.003.304-1.816.912-2.44.617-.622 1.399-.934 2.346-.934.947 0 1.724.312 2.332.935.617.623.925 1.436.925 2.44 0 1.003-.308 1.816-.925 2.44zm2.034.805v-6.489h3.518c.617 0 1.095.16 1.433.48.348.32.522.744.522 1.272a1.535 1.535 0 01-.782 1.363v.065c.147.069.299.173.456.311.304.337.456.731.456 1.181 0 .493-.191.921-.573 1.285-.374.354-.834.532-1.382.532h-3.648zm1.303-3.828h2.02c.26 0 .464-.07.612-.208a.75.75 0 00.235-.571.71.71 0 00-.235-.558c-.148-.147-.352-.22-.612-.22h-2.02v1.556zm0 2.725h2.085a.91.91 0 00.651-.247.79.79 0 00.261-.597.791.791 0 00-.261-.597.91.91 0 00-.651-.246h-2.085v1.687z" fill="#fff"/></svg>