<svg width="97" height="26" fill="none" xmlns="http://www.w3.org/2000/svg"><path d="M16.418 4.167c0 2.3-1.838 4.166-4.104 4.166-2.267 0-4.105-1.865-4.105-4.166C8.209 1.865 10.047 0 12.313 0c2.267 0 4.105 1.865 4.105 4.167zm-9.851 6.166c0 1.841-1.47 3.334-3.283 3.334C1.47 13.667 0 12.174 0 10.333 0 8.493 1.47 7 3.284 7c1.813 0 3.283 1.492 3.283 3.333zm-.821 9.084c0 1.38-1.102 2.5-2.463 2.5-1.36 0-2.462-1.12-2.462-2.5 0-1.381 1.102-2.5 2.462-2.5s2.463 1.119 2.463 2.5zm4.926 4.916c0 .92-.735 1.667-1.642 1.667a1.654 1.654 0 01-1.642-1.667c0-.92.735-1.666 1.642-1.666.907 0 1.642.746 1.642 1.666zm5.746.25c0 .46-.368.834-.821.834a.827.827 0 01-.821-.834c0-.46.368-.833.82-.833.454 0 .822.373.822.833zm73.15-.308v-1.802h-6.079V14.83h1.86v6.056h2.926V14.83h1.861v6.056h1.08v3.388h-1.648zm-14.463-1.802V14.83h1.86v4.902l3.352-4.902h1.719v7.642h-1.86V17.57l-3.352 4.902h-1.719zm-8.385 0V14.83h1.861v2.956h3.21V14.83h1.86v7.642h-1.86v-3.1h-3.21v3.1h-1.86zm-7.884 0V14.83h3.75c.653 0 1.183.087 1.59.26.407.173.7.413.88.72.19.308.285.669.285 1.082 0 .346-.105.678-.313.995a1.518 1.518 0 01-.88.62c.463.115.823.336 1.079.663.265.317.397.692.397 1.125 0 .663-.227 1.191-.681 1.585-.455.395-1.146.592-2.074.592h-4.033zm1.86-1.529h1.818c.426 0 .739-.062.938-.187.208-.135.312-.346.312-.634 0-.289-.1-.495-.298-.62-.19-.135-.507-.202-.952-.202h-1.818v1.643zm0-3.056h1.634c.435 0 .733-.063.894-.188.17-.124.256-.317.256-.576 0-.25-.085-.438-.256-.563-.17-.134-.468-.201-.894-.201h-1.634v1.528zm-7.501 4.758c-.54 0-1-.101-1.378-.303a2.161 2.161 0 01-.866-.865 2.55 2.55 0 01-.298-1.24c0-.769.222-1.346.667-1.73.455-.385 1.132-.577 2.031-.577h2.244v-.36c0-.5-.114-.85-.34-1.053-.219-.202-.569-.303-1.052-.303-.426 0-.734.077-.923.231a.797.797 0 00-.327.548H51.08c.028-.442.165-.836.412-1.182.255-.356.615-.635 1.079-.836.473-.212 1.041-.318 1.704-.318.644 0 1.203.097 1.676.289a2.26 2.26 0 011.122.937c.265.423.398.995.398 1.715v2.927c0 .404.004.76.014 1.067.019.298.047.591.085.88h-1.747a6 6 0 01-.07-.476v-.505c-.2.308-.512.577-.938.808-.426.23-.966.346-1.62.346zm.582-1.47c.303 0 .592-.054.866-.16.285-.115.512-.288.682-.519.18-.24.27-.543.27-.908v-.36h-1.889c-.36 0-.644.086-.852.26-.199.163-.298.389-.298.677 0 .307.104.552.312.735.209.183.511.274.91.274zm-11.28 4.18V14.831h1.733v1.125c.19-.346.488-.649.895-.908.407-.26.923-.39 1.548-.39 1.003 0 1.784.318 2.343.952.568.625.852 1.567.852 2.826v.288c0 .875-.132 1.605-.398 2.192-.255.576-.62 1.009-1.093 1.297-.474.288-1.042.433-1.704.433a2.75 2.75 0 01-1.364-.332 2.945 2.945 0 01-.951-.894v3.936h-1.86zm3.735-4.325c.493 0 .905-.188 1.236-.562.331-.385.497-.966.497-1.745v-.288c0-.721-.16-1.26-.483-1.615-.312-.365-.729-.548-1.25-.548-.35 0-.672.072-.965.216a1.495 1.495 0 00-.668.62c-.16.27-.241.615-.241 1.038v.865c0 .452.076.832.227 1.14.16.297.383.518.667.663.284.144.611.216.98.216zm-12.895 3.244v-3.388h.852c.132-.202.236-.505.312-.909.085-.403.147-.855.185-1.355.047-.51.07-1.009.07-1.5v-2.292h5.895v6.056h.909v3.388h-1.634v-1.802H34.97v1.802h-1.633zm2.684-3.388h2.755v-4.47H36.46v.995c0 .673-.033 1.326-.1 1.96-.056.626-.17 1.13-.34 1.515zm-6.575 1.759c-.72 0-1.33-.101-1.832-.303-.492-.202-.871-.5-1.136-.894-.256-.394-.403-.865-.44-1.413h1.902c.02.202.076.38.17.534a.945.945 0 00.47.346c.217.076.506.115.866.115.558 0 .947-.082 1.164-.245.228-.173.341-.38.341-.62 0-.288-.094-.505-.284-.649-.18-.144-.516-.216-1.008-.216h-1.15v-1.413h1.05c.36 0 .635-.077.824-.23a.742.742 0 00.284-.606.662.662 0 00-.284-.548c-.18-.154-.492-.23-.937-.23-.464 0-.8.08-1.009.244-.208.154-.326.38-.355.678H26.18c.038-.548.18-1.01.426-1.384.256-.375.62-.659 1.094-.85.483-.203 1.065-.304 1.747-.304 1.098 0 1.893.207 2.386.62.492.404.738.942.738 1.615 0 .365-.094.692-.284.98-.18.289-.468.5-.866.635.54.134.914.355 1.122.663.208.298.312.654.312 1.067 0 .461-.123.875-.369 1.24s-.62.653-1.122.865c-.502.202-1.14.303-1.917.303zM93.52 10.631c-.681 0-1.31-.14-1.888-.418a3.298 3.298 0 01-1.364-1.298c-.34-.586-.511-1.321-.511-2.205v-.29c0-.846.16-1.547.483-2.105a3.206 3.206 0 011.32-1.254 3.958 3.958 0 011.818-.418c1.184 0 2.083.317 2.699.951.615.635.923 1.553.923 2.754v.808h-5.326c.02.451.114.821.284 1.11a1.7 1.7 0 00.682.62 2.1 2.1 0 00.88.187c.483 0 .848-.072 1.094-.216.246-.144.421-.356.525-.635h1.719c-.151.798-.526 1.399-1.122 1.803-.597.403-1.335.605-2.216.605zm-.07-6.43c-.294 0-.578.048-.853.144a1.25 1.25 0 00-.653.52c-.16.24-.25.561-.27.965h3.508c-.01-.432-.095-.764-.255-.995a1.139 1.139 0 00-.611-.49 2.448 2.448 0 00-.867-.144zm-11.708 6.257V2.817h1.86v4.902l3.352-4.902h1.719v7.641h-1.861V5.556l-3.352 4.902h-1.718zm-9.161 1.802V8.872h.852c.133-.202.237-.504.313-.908.085-.404.147-.856.184-1.355a16 16 0 00.071-1.5V2.817h5.894v6.055h.91v3.388H79.17v-1.802h-4.957v1.802H72.58zm2.684-3.388h2.756v-4.47h-2.315v.996c0 .672-.034 1.326-.1 1.96-.057.625-.17 1.13-.34 1.514zm-6.575 1.759c-.72 0-1.33-.1-1.832-.303-.492-.201-.87-.5-1.136-.894-.255-.394-.402-.865-.44-1.412h1.903c.019.201.076.38.17.533a.93.93 0 00.47.346c.217.077.506.115.865.115.56 0 .947-.081 1.165-.245.227-.173.34-.38.34-.62 0-.288-.094-.504-.283-.648-.18-.145-.516-.217-1.009-.217h-1.15V5.873h1.051c.36 0 .635-.077.824-.23a.742.742 0 00.284-.606.662.662 0 00-.284-.548c-.18-.153-.493-.23-.938-.23-.463 0-.8.081-1.008.245-.208.154-.326.38-.355.677h-1.903c.038-.548.18-1.009.426-1.384.256-.375.62-.658 1.094-.85.483-.202 1.065-.303 1.746-.303 1.099 0 1.894.207 2.386.62.493.404.739.942.739 1.615 0 .365-.095.692-.284.98-.18.288-.469.5-.866.634.54.135.913.356 1.122.664.208.298.312.653.312 1.066 0 .462-.123.875-.37 1.24-.245.366-.62.654-1.121.865-.502.202-1.141.303-1.918.303zm-7.528 0c-.681 0-1.311-.14-1.889-.418a3.299 3.299 0 01-1.363-1.298c-.34-.586-.511-1.321-.511-2.205v-.29c0-.846.16-1.547.483-2.105a3.207 3.207 0 011.32-1.254 3.958 3.958 0 011.818-.418c1.184 0 2.083.317 2.699.951.615.635.923 1.553.923 2.754v.808h-5.326c.019.451.114.821.284 1.11a1.7 1.7 0 00.682.62 2.1 2.1 0 00.88.187c.483 0 .848-.072 1.094-.216.246-.144.421-.356.525-.635H64.5c-.152.798-.526 1.399-1.122 1.803-.597.403-1.335.605-2.216.605zm-.07-6.43a2.56 2.56 0 00-.853.144 1.25 1.25 0 00-.653.52c-.161.24-.251.561-.27.965h3.508c-.01-.432-.095-.764-.256-.995a1.138 1.138 0 00-.61-.49 2.449 2.449 0 00-.867-.144zm-11.209 6.257V2.817h3.75c.653 0 1.183.086 1.59.26.407.172.7.413.88.72.19.308.285.668.285 1.082 0 .346-.105.677-.313.994a1.518 1.518 0 01-.88.62c.463.116.823.337 1.079.664.265.317.398.692.398 1.124 0 .663-.228 1.192-.682 1.586-.455.394-1.146.591-2.074.591h-4.033zm1.86-1.528h1.818c.426 0 .739-.063.938-.188.208-.134.312-.346.312-.634 0-.288-.1-.495-.298-.62-.19-.134-.507-.202-.952-.202h-1.818V8.93zm0-3.057h1.634c.435 0 .733-.062.894-.187.17-.125.256-.317.256-.577 0-.25-.085-.437-.256-.562-.17-.135-.468-.202-.894-.202h-1.634v1.528zm-6.333 4.758c-.72 0-1.33-.1-1.832-.303-.492-.201-.871-.5-1.136-.894-.256-.394-.403-.865-.44-1.412h1.903c.018.201.075.38.17.533.104.154.26.27.469.346.217.077.506.115.866.115.559 0 .947-.081 1.165-.245.227-.173.34-.38.34-.62 0-.288-.094-.504-.284-.648-.18-.145-.516-.217-1.008-.217h-1.15V5.873h1.05c.36 0 .635-.077.824-.23a.742.742 0 00.284-.606.662.662 0 00-.284-.548c-.18-.153-.492-.23-.937-.23-.464 0-.8.081-1.008.245-.209.154-.327.38-.355.677h-1.903c.037-.548.18-1.009.426-1.384.255-.375.62-.658 1.093-.85.483-.202 1.065-.303 1.747-.303 1.098 0 1.894.207 2.386.62.492.404.739.942.739 1.615 0 .365-.095.692-.284.98-.18.288-.47.5-.867.634.54.135.914.356 1.122.664.208.298.313.653.313 1.066 0 .462-.123.875-.37 1.24-.246.366-.62.654-1.122.865-.502.202-1.14.303-1.917.303zm-7.806 0c-.681 0-1.311-.14-1.889-.418a3.274 3.274 0 01-1.363-1.312c-.34-.586-.511-1.317-.511-2.191v-.29c0-.826.17-1.518.511-2.076.34-.567.795-.99 1.364-1.269a4.17 4.17 0 011.888-.432c.691 0 1.321.144 1.89.432a3.229 3.229 0 011.363 1.27c.34.557.51 1.249.51 2.075v.289c0 .855-.17 1.576-.51 2.162a3.372 3.372 0 01-1.364 1.327 4.112 4.112 0 01-1.889.432zm0-1.615c.36 0 .677-.081.952-.245a1.73 1.73 0 00.667-.778c.161-.346.242-.774.242-1.283v-.29c0-.47-.08-.865-.242-1.182a1.687 1.687 0 00-.667-.72 1.747 1.747 0 00-.952-.26c-.36 0-.681.086-.965.26a1.717 1.717 0 00-.654.72c-.16.317-.241.711-.241 1.182v.289c0 .519.08.951.241 1.297.161.337.379.591.654.764.284.164.606.245.965.245zM29.8 10.631a4.026 4.026 0 01-1.874-.432 3.328 3.328 0 01-1.335-1.312c-.322-.587-.483-1.312-.483-2.177v-.29c0-.826.17-1.518.512-2.076.34-.557.79-.98 1.349-1.269a3.935 3.935 0 011.832-.432c.71 0 1.311.12 1.804.36A2.7 2.7 0 0132.74 4c.274.423.43.89.468 1.399h-1.903a1.45 1.45 0 00-.468-.822c-.228-.212-.573-.317-1.037-.317a1.8 1.8 0 00-.895.23 1.74 1.74 0 00-.653.707c-.161.317-.241.725-.241 1.225v.289c0 .538.075.98.227 1.326.16.336.374.586.639.75.274.153.582.23.923.23.37 0 .686-.096.952-.288.274-.202.459-.485.553-.85h1.903a2.983 2.983 0 01-.54 1.456 2.88 2.88 0 01-1.206.966 4.036 4.036 0 01-1.662.331z" fill="#fff"/></svg>