<svg width="1286" height="593" fill="none" xmlns="http://www.w3.org/2000/svg"><path fill-rule="evenodd" clip-rule="evenodd" d="M326.221 101.257c-2.018-2.881-1.898-1.048-3.69-2.212-1.778-1.15-5.308-.99-6.848-.29-1.539.698-3.928 2.677-6.25 3.245-2.323.567-3.65.858-4.499 2.459-.836 1.616.332 2.358-.279 3.26-.61.888-1.884.859-3.344.582-1.46-.262-2.535.117-3.902.83-1.367.728-2.389 1.295-4.313 1.775-1.924.481-2.575-.654-4.088-.32-1.513.32-3.49 1.965-5.109 1.819-1.619-.131-3.849.684-5.255 1.092-1.42.407-1.155-.83-2.363-1.499-1.207-.67-1.698.786-4.207-.189-2.508-.961-4.114-.961-5.043-.291-.929.669-.092 1.833-.557 2.998-.464 1.149-1.208 1.819-2.999.509-1.779-1.324-2.323-1.266-3.968-.538-1.659.727-.571 2.314-1.261 2.939-.69.626-3.636-.261-4.87.655-1.235.917-1.248-.058-3.65.757-2.389.801-2.641 1.266-3.305 2.998-.65 1.747-2.362 2.62-3.822 3.115-1.459.509-2.189.596-3.092 1.746-.902 1.164.292 2.911-1.433 3.275-1.739.378-2.747-1.965-4.074-1.587-1.314.379-2.469 1.863-2.681 3.755-.212 1.878-1.619 2.445-3.066 1.659-1.433-.786-3.609-1.266-4.339.699-.717 1.965.809 1.514 1.42 4.191.61 2.678 1.858 2.605 1.327 3.493-.531.888-2.124.568-3.809.641-1.699.087-1.977.96-.531 2.255 1.447 1.281 2.508 1.441 1.195 2.038-1.328.582-2.562-.669-3.57 1.193-.996 1.863-3.345 2.314-4.499 3.653a4.296 4.296 0 00-.306.408c-.079.131-.159.247-.225.378-.067.131-.146.277-.213.408-.106.218-.212.451-.331.669-.173.349-.345.713-.558 1.048-.053.102-.132.189-.199.291a1.743 1.743 0 01-.239.32 2.984 2.984 0 01-.345.379c-.013 0-.026.029-.053.043a2.6 2.6 0 01-.305.248 2.145 2.145 0 01-.425.262c-.039.029-.079.043-.132.073-.12.058-.253.116-.399.16-2.322.786-3.848.131-4.565 1.353-.305.509-.305 1.063-.079 1.63.053.131.119.262.185.393.053.087.093.16.16.247.159.248.371.481.597.714.119.131.252.247.398.363.212.19.451.35.69.524 1.699 1.165.518 4.628-.836 5.574-1.354.946-1.301.83-2.92 1.208-1.619.379-2.043 1.398-2.879 4.323-.837 2.94-1.46 1.703-2.92 2.459-1.46.743-1.407 2.751-.664 5.167s-.132 3.638-.836 4.672c-.69 1.018-1.539 4.133-4.406 4.177-2.88.058-3.437-1.237-4.791.858-.451.713-.65 1.572-.65 2.46 0 .189 0 .364.027.567 0 .102.026.219.026.321 0 .072.013.131.027.189 0 .102.026.204.053.291l.079.393a7.7 7.7 0 00.279.989c.053.131.093.277.146.408.159.393.332.742.504 1.048.093.16.186.305.279.451.106.16.212.306.332.451.106.131.212.248.332.349.053.073.132.131.185.19.093.072.186.16.279.232.146.117.292.219.451.306.12.073.239.131.372.189.093.044.172.073.252.117 0 0 .053.029.093.029.106.044.226.087.358.116.027 0 .053.029.093.029h.053c.133.029.252.044.385.073.266.029.544.029.836 0 .12-.029.239-.029.372-.058.252-.044.504-.131.756-.218 2.044-.801 3.61-1.761 4.274 1.295.65 3.056-1.712 2.358-.226 4.774 1.486 2.415 3.198 4.075 5.016 1.12 1.819-2.94 2.84-2.459 3.995-.32 1.155 2.154-.69 3.973 2.641 5.851 3.344 1.877 3.809-.102 5.295 1.833 1.487 1.921 4.048 1.121 7.06-.655 3.026-1.761 2.323 1.179 5.906.917 3.57-.262 3.291.058 6.782 2.038a7.351 7.351 0 00.942.48c.172.073.332.131.478.175.132.043.252.087.384.087.107.029.213.029.319.029h.026c.12 0 .213 0 .319-.044h.053c.04 0 .08-.029.12-.043.053-.029.092-.044.132-.088a.872.872 0 00.239-.218c.053-.073.106-.145.159-.247 0-.029.014-.044.027-.073.04-.087.093-.204.119-.32a2.27 2.27 0 00.107-.553c.013-.088.013-.146.026-.233.093-.859.027-1.994-.106-3.362-.411-4.352-3.437-2.037-6.861-5.268-3.437-3.217-3.716-1.98-4.552-4.454-.876-2.852-2.668-2.75-3.477-3.871-.823-1.135-.093-1.048-.797-2.62-.69-1.542-2.282-3.871-1.698-5.632.57-1.746.849-2.62.278-4.657-.583-2.052.837-3.551 1.779-5.618.955-2.081 2.083-1.557 3.304-3.013 1.208-1.44 1.38-2.343 1.911-4.628.531-2.285 1.487-1.324 3.146-3.274 1.645-1.965 1.114-2.445 2.508-4.163 1.393-1.717 3.265-1.935 4.791-4.278 1.499-2.343.822-2.431.199-3.741-.637-1.324-.611-2.343 1.022-2.925 1.619-.597 1.579 1.586 3.437.364 1.858-1.208 2.614-1.048 3.318-3.187.69-2.154-.651-2.533.69-3.595 1.353-1.077 1.433 1.688 2.88 1.426 1.433-.276 1.579-2.023 1.035-3.755-.531-1.746 1.207-2.576 2.574-1.426 1.38 1.164 2.734.146 3.278-.218s1.712-1.397 2.734-2.576 2.243-1.004 2.469-1.674c.132-.422.291-1.324.53-2.197.093-.35.213-.684.359-.99.039-.087.093-.16.132-.248 0 0 .027-.029.027-.043.013-.044.053-.073.08-.131.039-.058.092-.117.132-.175a.997.997 0 01.213-.204c.039-.029.079-.072.119-.087.332-.247.69-.349.995-.509.067-.029.133-.088.199-.131 0 0 .014 0 .014-.029.066-.059.132-.117.199-.19.053-.087.119-.189.172-.305.372-.946 2.455-2.998 4.22-2.562 1.766.422 2.734-1.397 4.592-3.056 1.858-1.674 3.066-.538 6.45-1.193 3.384-.641 2.84-1.281 5.056-2.14 2.23-.858 3.252-.058 5.296-1.077 2.043-1.018 7.763-1.921 9.09-3.231 1.327-1.324 4.911-1.717 7.326-2.197 2.402-.48 5.176.189 6.543-.917 1.366-1.106 9.13-3.886 10.298-5.21 1.155-1.31 2.229-2.242 3.026-5.181.783-2.926.345-2.795-1.672-5.662v.029zm-67.418 128.014c-.318-1.848-1.075-2.008-3.41-3.478-2.349-1.484-2.601-.698-3.57-2.78a1.626 1.626 0 00-.186-.305c-.053-.088-.093-.146-.133-.219a2.907 2.907 0 00-.331-.451 3.243 3.243 0 00-.332-.393 2.375 2.375 0 00-.332-.32c-.053-.058-.133-.102-.186-.145a5.324 5.324 0 00-.371-.248c-.054-.029-.12-.073-.173-.087-.066-.029-.133-.058-.186-.087-.093-.03-.172-.059-.252-.073a1.019 1.019 0 00-.292-.044 2.03 2.03 0 00-.889.102 2.54 2.54 0 00-.969.553c-.026.029-.053.044-.079.073-.173.145-.332.32-.492.495a5.047 5.047 0 00-.451.611c-.04.058-.079.102-.093.16a1.224 1.224 0 00-.132.233 4.897 4.897 0 00-.438 1.033c0 .029-.014.044-.014.073-.026.087-.053.175-.066.262 0 .029-.026.073-.026.102-.014.087-.027.174-.04.247a2.652 2.652 0 000 .655c.212 1.033.491 1.601.915 2.052.107.117.213.218.332.335.239.204.531.407.836.655.08.058.16.116.252.189.093.073.173.131.266.204.079.072.159.116.239.174.093.059.172.102.252.146.093.029.172.087.252.116.093.029.173.073.252.088.252.087.505.131.757.174.079 0 .159 0 .252.029.332.03.663.03.995.044h.332c.146 0 .292.029.451.029.186.029.372.044.571.087.106.03.212.059.332.088 1.592.509 2.787 1.644 4.153 2.663 1.367 1.019 2.363-1.179 2.044-3.042h-.04zm-80.741 11.309c-1.248-2.154-2.296-1.805-4.592-3.333-2.296-1.528-5.76-.102-7.843 1.804-1.394 1.616-1.354 4.57-1.513 6.171-.159 1.616.425 2.853 2.601 2.78 2.177-.073 3.185 1.077 5.547-.946 2.363-2.023 2.442-2.852 4.513-3.711 2.057-.859 2.561-.626 1.3-2.765h-.013zm-57.703 38.509c-.371-1.208-2.203-2.926-2.455-.946-.093.829.279 1.615 1.141 1.877.863.277 1.699.277 1.314-.946v.015zm-53.43 24.916c-.743-.903-3.53-1.048-2.84.305.532 1.048 1.46 2.009 2.323 1.819.876-.189 1.26-1.237.518-2.124zM347.56 172.483c-.783-1.746-4.114-4.512-7.126-3.871-5.733.626-5.534 5.094-4.95 7.218.57 2.125 2.455.815 5.68 0 3.225-.8 1.672-1.44 4.061-1.12 2.389.32 3.105-.481 2.322-2.227h.013zm22.336 2.547c-.85.407-.823.931-.279 1.615.557.67 2.031 1.892 2.256 1.398.239-.495.65-3.959-1.977-3.013zm36.402 1.193c-.982.626-2.057.888-1.778 1.907.279 1.004 1.048 1.266 2.76 2.081 1.699.83 2.363-.073 2.482-.946.12-.888-1.274-3.74-3.464-3.042zm25.149-43.937c-.703-.859-1.884-.728-2.946.917-1.075 1.426.279 5.283 1.778 5.472 1.513.189.398-1.776 1.075-3.551.677-1.761.797-1.98.093-2.838zm-48.134 34.87c-.305-.363-1.818-.305-2.92 0-1.672.597-2.787 1.558-1.486 1.805 1.3.247 3.105-.83 3.835-.8.717.029.876-.641.571-1.005zm4.631 7.248c-.331-.931-1.499-.684-2.388-1.004-.876-.32-1.58-.451-1.434.407.213 1.267.518.83 1.938 1.005 1.42.16 2.216.538 1.884-.393v-.015zm79.229-31.727c-.173-1.106-1.606-3.056-2.283-1.004-.623 1.936-.411 2.852-2.004 3.522-1.579.669-2.8 1.615-1.433 2.314 1.367.698 2.761.087 4.685-.917 1.937-1.004 1.194-2.823 1.035-3.915zm-9.914 11.934c-.345.349-.238.801.465 1.048.69.247 1.619.524 1.553-.189-.053-.728-1.235-1.47-2.018-.859zm-3.556-6.927c-.465.8-.876.334-1.433 1.353-.558 1.019-.956 1.688.185 1.412 1.155-.262 2.601-1.252 2.601-1.965 0-.713-.729-1.994-1.353-.8zm4.499 1.309c-.69.408-1.672 1.106-1.553 1.994.119.903 1.924-.029 2.375-.567.452-.553.876-1.965-.822-1.427zm31.359-52.436c-1.46.8-2.243 1.586-.756 2.444 1.486.86 3.105.262 2.986-1.076-.106-1.34-1.075-1.907-2.23-1.368zm28.507 22.063c-1.434 1.703-2.456 1.659-2.097 2.721.371 1.048 1.579.961 2.654.059 1.062-.917 1.088-4.832-.571-2.78h.014zM392.125 48.544c-2.522-1.15-4.459-1.586-5.043-.262-.412 1.179-.292.946 1.858 2.358 2.15 1.426 5.892 3.58 7.591 1.935 1.699-1.644-1.898-2.881-4.406-4.031zm26.781-28.89c-.995-.509-2.522-1.396-4.685-.814-3.676 1.543-2.906 3.711-.57 4.279 2.349.567 4.207-.626 5.666-1.18 1.473-.567.584-1.775-.411-2.284zm195.311 45.714c-2.363-.655-2.508 1.98-3.955-1.455-1.433-3.435-3.384-4.774-5.335-5.152-1.951-.379-2.508-1.718-3.437.16-.916 1.877-2.362-.64-3.889 2.037-1.539 2.693-.424 4.832-2.747 4.294-2.322-.539-2.043-.539-.411-2.736 1.619-2.198.61-1.936 1.858-4.134 1.261-2.197 2.282-1.76 2.468-2.954.173-1.179-1.314-2.736-3.809-2.3-2.508.422-1.804.539-2.826 2.256-1.022 1.718-1.858 1.441-3.146-.655-1.313-2.08-3.808-.902-4.087 1.892-.279 2.78-4.645 4.934-6.874 11.12-1.434 2.095-1.301 3.681-2.575 5.879-1.274 2.197-4.234 4.075-4.658 5.661-.412 1.587-.969 3.784 1.831 3.246 2.814-.539 4.366-1.863 6.463-2.955 2.097-1.106 2.814-1.964 7.618-1.92 4.804.028 9.741-.583 11.984-.772 2.256-.19 5.799-1.994 7.458-2.576 1.646-.597 5.335.567 6.543-.291 1.207-.859 2.853-1.106 3.264-3.9.412-2.795.651-4.076-1.712-4.716l-.026-.029zm-42.335-23.504c-1.075-2.314-1.433-2.416-4.831-2.358-3.397.044-2.189 3.158-4.512 3.915-2.322.742-1.951-1.077-3.49-3.551-1.526-2.46-2.973-3.1-5.017-1.877-2.043 1.237-3.716.698-5.534.058-1.818-.64-2.972-.059-4.406.48-1.433.538-2.322.16-4.645.597-2.322.422-6.874-.379-7.431 1.499-.558 1.877 1.765 2.576 1.26 4.191-.517 1.601-3.025.64-4.273 1.18-1.247.538-3.105 0-3.145 2.575-.053 2.576.504 3.158 2.455 2.46 1.951-.699 2.92-.16 2.561 1.673-.371 1.82-.411 2.038.743 4.075 1.155 2.038.558 4.235 3.57 3.653 3.026-.596 2.88-3.594 4.274-2.255 1.393 1.338 1.698 2.08 2.15 2.94.464.843 3.662.873 4.578.552.916-.32 2.269-.83 3.769.917 1.938 2.693 2.362 3.711 6.118 2.955 3.769-.757 4.645-2.256 7.021-1.077 2.362 1.178 5.613 1.077 8.267-1.121 2.655-2.198 2.283-4.075-1.021-4.075-3.305 0-5.84-3.013-3.849-4.09 2.004-1.062 1.818 1.18 4.233 1.18 2.416 0 2.602-2.78 2.562-4.993-.053-2.212 3.198-.378 3.065-3.55-.132-3.159-3.384-3.654-4.459-5.953h-.013zm-11.851-16.49c-.226-1.557-3.026-2.095-6.277-2.954-3.252-.859-4.181-2.358-6.822-5.85-2.415-4.672-8.732-3.653-9.94-.597-1.207 3.056-4.684 1.179-7.06 2.096-.093.029-.186.072-.279.087a1.833 1.833 0 01-.278.058 3.364 3.364 0 01-1.381-.058c-.398-.087-.769-.218-1.141-.335-.478-.13-.929-.247-1.38-.175-.106.03-.212.044-.305.088-.133.043-.266.116-.412.189-.053.044-.132.087-.186.146a3.53 3.53 0 00-.411.407c-1.765 2.154-3.477 2.198-6.45 3.493-2.972 1.28-2.933 2.416-.61 3.537 2.322 1.135 5.428-1.063 4.406 2.314-1.022 3.376-2.641 2.255-6.596 2.954-.212.029-.411.087-.584.13a3.09 3.09 0 00-.371.103c-.412.116-.757.247-1.035.407-.08.044-.16.088-.226.131-.106.073-.212.131-.292.219-.093.072-.173.13-.239.218-.053.044-.093.102-.133.145-.04.059-.079.117-.106.16-.491.83.04 1.747 1.155 2.184 1.951.756 3.065 2.896 6.038 1.993 2.973-.916 3.955 1.601 5.202 2.678 1.261 1.077 4.924.64 6.278-1.179 1.353-1.833 2.879-2.255 5.852-3.594 2.973-1.34 5.056.8 6.543.32 1.486-.48 4.273-.859 5.706.16 1.447 1.019 4.698.102 5.256-1.557.557-1.66-1.354-2.518-1.765-3.813-.412-1.281.411-3.057 4.18-2.416 3.756.655 3.902-.16 3.663-1.718v.03zM523.164 42.36c-.292-.131-.611-.262-.916-.408a3.082 3.082 0 00-.305-.16c-.199-.116-.398-.247-.584-.364-.093-.073-.173-.145-.266-.218-1.818-1.557-3.676.262-6.184-.815-2.508-1.063-2.123-2.3-5.242-1.44-6.543.217-4.233 5.791-1.672 5.253.889-.19 1.579-.277 2.137-.204.092 0 .185.03.265.044.053 0 .093.029.146.029.053 0 .093.03.133.044h.013c.093.029.186.058.265.102.226.116.452.29.651.494.106.117.212.233.305.35.212.262.411.582.61.946 1.155 2.037 3.345 2.517 6.543 1.979.531-.087.956-.175 1.314-.262.119-.03.239-.073.332-.087.119-.044.225-.088.331-.117.16-.058.292-.116.425-.189.093-.03.173-.087.239-.131.04-.03.08-.044.119-.087.053-.03.093-.073.146-.117a1.7 1.7 0 00.372-.349c.04-.03.093-.087.133-.131l.093-.102c.132-.13.292-.32.477-.524.133-.145.279-.305.438-.495.159-.174.332-.364.544-.567l.319-.35a.67.67 0 00.119-.174c.04-.058.067-.117.093-.16a1.37 1.37 0 00.08-.146c.013-.044.04-.087.053-.13a.47.47 0 01.026-.132c.093-.67-.65-1.004-1.579-1.411l.027.029zm-14.97-28.235c-.81-1.31-3.185-1.804-5.508-1.047-3.158 1.339-3.53 2.823-3.304 3.754.239.947 1.048.452 3.145 1.107s3.729-.248 5.136-1.02c1.394-.785 1.354-1.484.531-2.793zm125.2 64.008c-.73-.86-1.593-.728-3.146-.757-2.601.174-4.459 2.183-3.543 2.387.916.218 2.017-.219 3.331-.364 1.314-.146 1.566.087 2.402.32.849.233 1.659-.728.956-1.586zm-8.388-2.926c-.491.946-1.486.64-1.977 1.616-.505.96-.438 1.746.451 1.266.876-.48 2.853-.408 3.504-1.47.663-1.048-.836-3.493-1.978-1.426v.014zm51.452 68.373c-1.579-.582-2.813.626-4.3-.189-2.972-1.455-7.445 4.104-5.613 5.4 1.831 1.28 2.84-.131 4.047 1.819 1.208 1.965 3.597 1.019 4.181-1.717.571-2.737 3.503-1.485 3.928-2.824.411-1.339-.65-1.906-2.229-2.503l-.014.014zM163.344 24.385c-.836-.946-1.314-1.106-2.919-.131-1.606.96-.717 1.703-2.641 1.484-1.938-.218-3.783.379-5.203 1.325-1.791.8-2.322 1.426-4.459 1.208-2.136-.204-3.662-.03-4.95.407-1.274.437-2.123 1.936-.77 1.936 1.354 0 1.832-.539 2.695.51.862 1.047 2.003-.22 3.105-.117 1.115.116 1.141.626 2.137 1.397.995.786 2.481.757 3.185-.582.69-1.34 2.362-2.576 3.49-2.372 1.115.218 1.871.16 2.402-.961.531-1.12.584-1.805 2.283-2.343 1.698-.539 2.481-.8 1.645-1.747v-.014zm5.627 1.426c-1.513-1.484-4.047.247-2.946 1.747.903 1.295 3.106 1.484 4.114 1.106.995-.364.345-1.368-1.155-2.838l-.013-.015zm24.91 1.004c-.411-1.935-1.115-3.172-3.57-1.833-2.455 1.353-3.291 2.896-4.499 1.935-1.207-.96-.278-.859-.517-2.518-.226-1.673-3.716-2.095-6.503-1.178-2.787.902-4.088.101-3.437 2.837.65 2.737 0 4.512-1.354 4.934-1.354.437-2.415.218-4.353-.524-1.951-.756-2.322-1.295-4.884-.174-2.548 1.135-4.273 2.852-2.694 3.609 1.58.742 2.323 1.12 2.323 2.401 0 1.281 0 2.955.093 4.512.093 1.557 1.672-.262 3.384-1.077 1.725-.8 1.951.437 3.344-.262 1.394-.699-.517-1.615-.464-3.653.053-2.038 2.136-1.6 3.158-.538 1.022 1.076 4.181.538 4.871-1.383.69-1.936 1.579-2.853 4.512-2.532 2.919.32 5.521-.86 7.1-2.256 1.579-1.397 3.902-.364 3.477-2.3h.013zm-7.75-10.318c-2.323 1.935-2.19 3.857-.332 3.158 1.858-.699 3.159-1.019 3.756-2.678.61-1.66-1.765-1.98-3.424-.48zm-28.414 19.021c-2.349-.509-.61 2.897.863 3.551 1.46.64 1.579-.189 1.831-1.324.253-1.135-1.486-2.125-2.694-2.241v.014zm22.482 2.664c-1.447 1.048-2.602.625-2.283 1.615.332 1.004 1.792 2.067 2.628 1.645.836-.437 1.42-.437 1.539-1.5.106-1.076-1.46-2.182-1.884-1.746v-.014zm8.307 2.954c-1.048.888-1.367 1.34-2.176 1.921-.823.568-1.035 1.718.159 1.383 1.181-.32.491-.16 2.323-.422 1.831-.277.743-3.959-.292-2.882h-.014zm15.382-6.01c-1.195 1.557-2.442 1.295-2.628 2.532a1.87 1.87 0 00.04.83c.053.13.106.261.199.349.04.058.093.087.132.13.054.03.107.073.173.088.133.073.279.087.438.087.053 0 .106 0 .172-.029.067 0 .133-.029.213-.044a.465.465 0 00.212-.072l.239-.088c1.234-.582 1.553-.247 3.384.059.412.072.77.145 1.088.189.319.073.598.102.823.102.12 0 .212 0 .305-.03.067-.029.12-.043.173-.087a.29.29 0 00.119-.102c.16-.189.226-.465.213-.946-.067-1.615-3.809-5.428-5.309-3.012l.014.044zm4.631-3.799a2.335 2.335 0 00-.119-.291 7.506 7.506 0 01-.173-.422l-.119-.262c-.836-1.965-2.442-3.464-1.765-1.34.252 1.122.066 2.635 1.194 2.519.571-.058.942.16 1.035.102.04-.03.027-.117-.04-.291l-.013-.015zm9.436 2.023s-.053-.131-.093-.19c-.013-.028-.053-.057-.08-.087-.013-.029-.053-.058-.079-.087 0-.029-.027-.029-.04-.044-.053-.043-.106-.102-.173-.16-.318-.276-.756-.655-1.274-1.295-1.313-1.674-2.017-2.401-3.145-1.674-.61.815-1.486 1.863.106 2.256 1.606.408 1.487-.087 2.469.946.172.19.345.379.491.568.132.174.252.334.371.48.08.102.16.204.239.291a.989.989 0 00.133.131c.053.044.093.087.133.102a.58.58 0 00.132.073.27.27 0 00.213 0c.026 0 .053-.03.093-.044a.573.573 0 00.185-.19c.04-.057.093-.13.133-.217.04-.073.066-.131.093-.19.013-.058.04-.13.053-.174a2.55 2.55 0 01.04-.16.775.775 0 00-.013-.35l.013.015zm-2.867 4.279c-.185-1.063-2.203-2.838-2.588-1.325-.172.568-.159 1.543.77 1.921.929.379 1.991.48 1.818-.596zm86.355-18.847a2.18 2.18 0 00-.119-.393c-.053-.131-.106-.262-.173-.393a1.883 1.883 0 00-.225-.379 1.84 1.84 0 00-.292-.363 6.744 6.744 0 00-.757-.757c-1.765-1.5-4.273-1.878-5.295-.437-1.022 1.456-.464 3.915-2.641 4.294-2.787.596-2.734.116-5.255.058-2.508-.058-3.663 1.339-4.592 2.678-.332.48-.504 1.033-.451 1.542 0 .058 0 .102.026.16.014.117.054.219.093.32.027.073.053.146.093.219.027.044.067.102.106.16.107.13.253.276.412.407.079.073.172.131.252.19.146.072.305.16.491.232a4.95 4.95 0 001.287.32c.173.03.332.044.491.073h.226c.172.03.332.044.491.059h.04c.106 0 .212.029.318.029.77.058 1.274 0 1.898-.117h.066c.133-.029.253-.072.412-.102a7.65 7.65 0 01.478-.13c.172-.059.345-.102.544-.146.305-.087.65-.175 1.035-.277 3.158-.8 4.831 1.616 6.742-.32 1.897-1.935 3.53-2.037 4.087-4.235.093-.364.173-.728.212-1.048.093-.626.093-1.164-.026-1.673l.026.029zm-25.268 5.56c-1.672-1.5-3.384-2.257-6.224-.54-3.769 1.878-3.066 1.398-7.286.597-4.233-.8-5.441-.378-6.595 1.238-1.155 1.6-3.385 4.176-1.022 6.01 2.362 1.82 2.601 1.441 5.109.422 2.508-1.019 3.477-.538 5.255.859 1.765 1.397 4.552 1.659 5.428-.859.876-2.518 1.765-2.096 3.716-3.915 1.951-1.819 3.305-2.314 1.619-3.813zm-3.344-6.288c-.518-2.474-4.791-1.397-7.432-.16-2.19.742-4.512.364-4.14 2.081.371 1.717 1.486 1.514 3.623 1.994 2.136.48 3.477-.64 4.684-1.295 1.208-.64 3.769-.16 3.265-2.62zm12.674-14.932c-6.543-.917-6.277.96-3.663 1.717 2.601.743 1.765 1.718 4.366 1.761 2.601.058 2.867-.32 3.995-1.339 1.115-1.018-.65-1.819-4.698-2.14zm-7.113 4.308c-.744-1.878-4.314-3.202-3.623-1.019.238.888.915 1.688 2.017 1.805 1.114.102 2.349 1.106 1.606-.786zM253.827.808c-.173-.96-1.805-.96-3.65-.539-2.919.51-3.596 2.853-2.057 3.202 1.54.35 2.296-.757 3.902-1.077 1.592-.32 1.991-.626 1.805-1.586zm-5.826 32.207c-1.58-1.397-2.787-1.12-4.831-1.12-3.397.043-5.109-.48-5.667.902-.57 1.397 1.075 1.775.465 3.653-.611 1.877 1.061 2.037 3.57 3.434 2.508 1.398 3.424-.378 4.406-2.095.968-1.718 1.353-1.019 3.941-1.921 2.601-.917-.332-1.456-1.898-2.853h.014zm-12.581 6.39c-.465-1.82-2.562.101-3.384-2.155-.837-2.241-.332-2.241-2.004-3.376-1.673-1.12-4.406-1.397-3.159 1.019.743 2.692 1.898 3.594.465 4.992-1.434 1.397-1.991 3.332.132 2.357 2.137-.96 1.672-2.241 3.676-1.557 1.991.698 4.738.538 4.274-1.28zm15.819-16.723s-.133-.116-.213-.16a1.411 1.411 0 00-.291-.146c-.107-.043-.226-.101-.372-.145-.053-.03-.133-.058-.212-.087-.133-.059-.292-.117-.465-.19a23.795 23.795 0 01-.809-.349c-2.137-1.019-2.88-1.179-1.991-2.14.876-.974 1.991.801 3.304-.654 1.301-1.441.279-4.454-1.393-3.915-1.672.538-2.097 1.513-3.437 2.474-1.354.96-3.53 1.98-4.181.64-.65-1.339 0-2.256 1.354-3.056 1.354-.8 1.261-3.013-.133-3.697-.769-.393-1.526.248-2.216 1.077-.133.16-.265.335-.411.51-.053.087-.133.174-.199.247-.133.175-.253.335-.385.495a6.148 6.148 0 01-.544.626c-1.075 1.019-2.522 1.615-2.323.495.186-1.136.611-1.398 1.022-2.576.411-1.194.372-3.115-1.115-2.314-1.486.8-1.672 1.557-2.004 2.576-.332 1.018-3.198 1.397-4.592.858-1.393-.538-2.601-2.896-3.808-.858-.797 1.339-1.566 2.46-1.235 3.056.014.044.054.087.093.13a2 2 0 00.173.132c.04.029.093.029.146.058.133.058.318.087.531.102.172.03.371.03.597 0 2.681-.117 3.809-1.674 4.685-.815.876.859 2.694 1.455 1.712 2.692-.969 1.237-1.898.204-2.92 1.02-1.022.8-.611 1.076-.279 2.095.332 1.019.372 1.557-.743 1.717-1.115.16-1.818.96-2.92-.975-1.114-1.936-1.313-3.653-2.282-3.216a.823.823 0 00-.332.247c-.027.03-.053.073-.093.102-.053.073-.106.146-.159.233l-.199.35a.918.918 0 01-.213.29c-.252.262-.65.291-1.473-.466-.172-.16-.331-.305-.451-.45-.093-.102-.172-.204-.252-.292-.053-.087-.119-.16-.173-.233a3.216 3.216 0 00-.159-.232c-.053-.088-.119-.175-.172-.248-.08-.116-.133-.233-.213-.32a.755.755 0 00-.093-.131 1.16 1.16 0 00-.331-.32c-.04-.03-.08-.044-.12-.058-.066-.03-.132-.03-.212-.03-.239 0-.544.102-.982.35-1.473.815-2.429 1.964-2.031 2.75.04.073.093.16.173.233a.983.983 0 00.186.16c.066.044.132.088.225.131 1.434.699 3.106-.538 3.013.917-.093 1.441.464 2.14-1.155 1.761-1.619-.364-3.158-1.76-4.233-.524-.611.699-1.075 1.718-.996 2.445v.088c0 .043.014.102.04.145.014.058.053.117.08.175a.565.565 0 00.119.145c.199.204.531.32 1.035.277 1.991-.175 2.787.742 5.853-.451 2.137-.975 3.769.102 4.977.96 1.207.859 3.596 1.965 5.454 1.587 1.858-.379 3.172-.903 2.07-1.98-1.088-1.062-1.937-1.746-1.433-2.256.252-.247.717-.349 1.248-.218.066 0 .146.03.238.073l.173.073c.345.145.703.407 1.048.756.093.088.186.19.279.32.053.088.12.146.173.234.053.087.119.145.172.232.12.146.212.292.319.423.066.087.132.174.199.247.093.116.172.233.265.335.08.087.146.174.226.247.079.087.159.146.239.218.079.073.172.131.252.175.093.058.172.102.265.131.093.044.213.073.332.087.239.03.491.03.796-.043 1.54-.364 2.071-1.208 1.58-2.445-.492-1.237-1.208-1.485-2.23-3.057a9.429 9.429 0 00-.557-.786c-.133-.189-.266-.349-.385-.494-.173-.233-.332-.422-.451-.597-.067-.117-.12-.204-.146-.291-.027-.088-.027-.146 0-.204 0-.029.013-.029.039-.044 0-.029.027-.029.053-.043.027-.03.054-.03.107-.044.053 0 .106-.029.185-.029 1.075-.102 1.819.03 3.159 1.717.08.102.172.204.239.306.146.204.292.407.411.597.412.655.677 1.208.996 1.644.092.131.172.233.265.35.186.203.411.392.717.509 1.167.51.929.8 2.057-.131 1.114-.946 2.574.087 4.286 1.048 1.725.96 2.323.902 3.305-.859.438-.786.491-1.179.212-1.455l.04-.044zm1.048-12.632c-2.322.16-2.8.378-2.057 2.052.743 1.659 3.066.64 4.181-.335 1.114-.96-.505-1.557-2.124-1.717zm8.534 2.474c-2.787-.757-1.951 1.935-1.115 1.717.836-.218 3.105.102 3.663-.538.557-.64-1.301-1.121-2.562-1.18h.014zm-20-6.273c-.73.568-1.46.626-.61 1.397.862.786 1.552.364 2.362-.13.809-.51-.279-2.024-1.765-1.267h.013zm6.728 36.733c-1.074.059-1.446.262-.729.728.729.466.809 1.295 1.95 1.237 1.142-.058 1.659.19 1.593-.64-.066-.83-2.163-1.557-2.827-1.325h.013zm4.778-4.438c-.955.946-1.088 1.382-.212 1.92.876.525 1.831 1.15 2.163.408.332-.757-1.42-3.202-1.951-2.314v-.014zm7.711-.626c-.571.887-.81 1.804.066 1.935.889.131 1.539.786 1.566-.509.026-1.28-1.048-2.46-1.632-1.426zm651.611 122.673c-1.487-1.121-2.19-4.556-4.552-4.512-3.849-.102-3.902 1.077-6.45.655-2.561-.437-1.619-1.077-4.791.742-3.158 1.834-.743 2.038-3.304 3.653-2.562 1.616-3.716 2.358-1.898 3.377 1.818 1.018 3.012-1.179 4.645-.903 1.619.262 4.22 2.038 8.493 1.718 4.274-.321 4.367 1.557 7.021 2.779 2.641 1.237 3.49-1.12 3.954-3.856.452-2.736-1.619-2.518-3.105-3.653h-.013zm-19.283-13.157c-2.044 1.339-2.694 2.736-1.619 4.235s2.601 1.558 4.273-.218c1.672-1.761 1.394-6.869-2.641-4.017h-.013zm20.185-14.626c-.411-.757-1.022-.437-2.641-1.747-1.619-1.324-1.818-1.018-2.972-3.274-1.155-2.256-2.641-2.678-2.111-4.425.531-1.746-.57-2.576 1.858-3.493 2.416-.916 4.513-1.178 3.716-2.954-.796-1.775-2.282-.757-4.353-3.114-2.096-2.358-4.313-5.691-5.759-3.974-1.434 1.718-.133 3.391-1.858 2.533-1.725-.859-2.747-1.295-2.787.364-.053 1.673-.372.698.915 3.274 1.314 2.576 2.323 4.09.571 4.832-1.778.757-2.88 2.576-4.087-.8-1.208-3.377-3.716-3.537-6.224-4.294-2.509-.757-2.097-.058-3.955-2.576-1.858-2.518-4.035-2.518-6.583-1.179-2.561 1.339-3.105 1.179-5.109 1.441-1.991.277-3.756 1.295-3.663 3.551.093 2.242-.411 2.416-1.619 3.915s.332 2.358 0 4.352c-.332 1.979-1.898 2.299.292 4.657 2.561 3.551 4.698 2.256 6.636 4.512 1.95 2.255 2.84 0 5.626 1.979 2.787 1.994 5.84 1.615 6.583-.801.743-2.415 2.508-3.696 3.384-2.634.876 1.077 1.725 3.173 3.849 1.776 2.136-1.397 1.911-1.281 5.109-1.718 3.212-.422 2.137-2.576 5.016-1.979 2.88.582.465 2.62 2.88 4.293 2.416 1.66 5.933-1.309 6.583-1.28.65.029 1.141-.481.716-1.223l-.013-.014zm18.367-10.377c-.371-2.198-2.362-2.154-4.591-2.256-2.23-.102-4.685-2.314-6.543-3.376-1.301-.379-1.898-1.878-2.973-.495-.371.48-.65.859-.915 1.179-.067.087-.133.16-.213.233a4.166 4.166 0 01-.73.625c-.212.131-.451.277-.716.422-.186.088-.398.19-.624.291a2.213 2.213 0 00-.584.379c-.093.073-.159.16-.226.247-.132.16-.252.35-.331.539a1.892 1.892 0 00-.133.291c-.027.087-.067.175-.093.247-.053.131-.093.248-.133.364-.053.16-.119.335-.172.495-.067.175-.133.349-.213.509-.093.175-.172.335-.292.481-.039.072-.092.131-.132.189 0 .029-.027.043-.053.073h-.027s-.106.131-.172.174a2.303 2.303 0 01-.491.364c-1.898 1.077-2.044 3.216-.186 4.453 1.858 1.238 2.282 1.878 3.809 4.032 1.539 2.139 3.344-.859 5.573 0 2.23.858 3.623 1.281 5.057-1.499 1.446-2.795-.916-2.955 2.004-5.05 2.919-2.096 4.512-.699 4.127-2.897l-.027-.014zm46.834 9.212c-.836-1.135-2.322.961-3.888-.756-1.58-1.718-2.23-2.358-4.831-2.897-2.601-.538-4.459-.858-6.689 0-2.229.859-1.539-.058-3.53-1.717-2.004-1.659-.982-1.179-3.663-1.295-2.694-.102-1.672-1.979-3.954-.859-2.283 1.135-2.84 2.576-4.367 1.557-1.526-1.018-1.154-.96-1.579-2.998-.411-2.037-2.176-2.037-2.919-.8-.744 1.222-1.62 2.241-.744 4.337.876 2.096.505 2.532 2.23 2.736 1.712.218 2.601 1.994 5.202 1.936 3.199.596 3.344.262 4.685 2.474 1.353 2.197 1.898 3.056 4.791 2.678 2.88-.379 3.344-.321 5.534.698 2.176 1.019 3.198 1.077 5.428-.262 2.229-1.353 3.158 1.019 5.016-.378 1.858-1.397 4.127-3.333 3.291-4.454h-.013zm-121.868 18.251c-1.142-1.936-5.057-3.406-2.973-.219.531.757.929-.96 2.229 1.863 1.301 2.824 3.623 4.192 3.995 2.504.372-1.689-2.11-2.198-3.251-4.134v-.014zm-1.858-28.322c-.491 1.499-2.814 2.14-1.487 3.813 1.314 1.659 3.066 2.009 4.274-.451 1.207-2.474-1.699-7.524-2.787-3.362zm109.407-20.622c-.505.102-1.009.203-1.487.291-.119.029-.225.029-.345.073-.106.029-.212.043-.332.072-.106 0-.212.044-.318.073a4.781 4.781 0 00-.571.146c-.093.029-.172.058-.252.087-.08.029-.146.058-.212.087a.95.95 0 00-.173.088c-.119.072-.212.145-.252.232-.093.131-.106.277-.053.452.013.072.053.131.093.203.716 1.121 1.035.452 2.973.19 1.924-.262 3.782.756 3.994-.626.213-1.368-1.884-1.659-3.065-1.368zm28.426 13.302c-.464.975-.531 1.368 1.049 2.096 1.579.727 2.097 1.018 2.349-.626.252-1.645-2.23-3.944-3.398-1.485v.015zm228.001 89.214c-3.63-1.776-2.37-1.456-4.18-2.693-1.82-1.222-3.91-1.44-8.64-.102-5.11 1.66-5.76 2.038-8.51 4.032-2.73 1.979-3.16 1.281-5.02 3.915-1.85 2.634.38 3.434 2.88 2.998 2.53-.422 4.42.975 6.28-1.019 1.86-1.979 2.23-1.601 5.26-.32 3.02 1.295 3.99 2.692 6.31.757 2.33-1.936 3.21-2.256 6.09-1.456.23.059.46.117.65.146.03 0 .06.029.08.029h.02c2.17.378 2.47-.859 3.38-2.794 1.02-2.154-.98-1.718-4.59-3.493h-.01zm-136.23 178.501c-.45-1.689-2.42-2.285-4.11-1.529-1.43.67-1.96.102-2.77 1.339-.8 1.237-.27 2.343-1.71 3.493-1.43 1.15-3.38 2.067-2 2.707 1.39.641 3.14-.538 3.9-1.368.76-.829 3.19-1.994 4.43-2.241 1.25-.248 2.7-.728 2.25-2.416l.01.015zm18.51 56.482c-.49-1.266-2.04-1.586-2.48-3.362-.03-.131-.05-.262-.08-.392a9.187 9.187 0 01-.07-.452c-.01-.16-.01-.291-.02-.407 0-.131 0-.233-.03-.32v-.131c0-.088-.01-.16-.05-.233a.774.774 0 00-.13-.204c-.11-.131-.3-.262-.59-.422-1.18-.64-3.02-.087-1.5 2.256 1.12 1.673 1.18 2.692 2.97 3.871 1.78 1.179 2.49 1.048 2-.218l-.02.014zm10.13 2.314c-.69-1.077-1.5-1.048-2.35-2.124-.84-1.063-2.84-1.281-1.7.276.61.728 1.27 1.528 2.57 2.139 1.32.626 2.17.786 1.46-.291h.02zm-248.185-8.121c-.531.51-2.11.786-1.579 1.558.531.786.889.567 2.017.072 1.141-.494.451-2.124-.438-1.644v.014zm58.95 69.96c-.929-3.871-.65-3.595-2.322-6.986-1.672-3.376-2.84-2.838-2.867-6.171-.053-3.318.624-5.879-.862-8.397-1.487-2.518-.611-3.115-1.261-5.312-.65-2.198-3.145-4.133-3.384-6.389-.226-2.256.929-1.776 1.898-4.774.982-3.012-.85-1.004-.996-5.836-.146-4.832 1.248-6.447-.371-8.645-1.619-2.212-.836-1.295-1.394-3.871-.557-2.576-2.176-5.792-3.291-5.05a4.611 4.611 0 00-.438.349c-.066.058-.133.131-.212.204-.067.073-.133.131-.199.218a3.543 3.543 0 00-.452.641c-.053.087-.092.189-.132.276-.027.073-.053.131-.067.218 0 .03-.013.029-.013.059-.013.072-.04.131-.053.218v.029a1.609 1.609 0 000 .509c.013.088.04.175.066.262.027.088.067.16.12.248.053.087.093.16.172.247.014.029.04.044.053.073l.067.073c.172.16.371.349.597.524.212.189.438.407.65.626.146.145.292.291.425.451.876.989 1.46 2.168.451 3.376-1.619 1.994-3.756.917-5.242 1.994-1.486 1.077-2.137 2.998-1.354 4.774.783 1.775 0 2.095.093 6.068-.278 2.78-1.3 2.198-.225 6.171.132.495.265.932.398 1.31.066.189.133.364.199.539.239.596.464 1.062.69 1.484.093.189.199.349.292.509.133.219.252.422.372.641.066.131.132.262.212.407.053.131.133.248.186.393.252.539.491 1.208.73 2.081.929 3.537.464 3.333-.054 7.801-.504 4.454.213 7.059.677 10.231.465 3.158 0 4.832-1.114 7.947-1.115 3.114-2.004 5.21-.929 8.383 1.075 3.158 1.791 3.463 1.366 6.199-.411 2.737-1.857 2.897-1.486 5.691.372 2.794 1.354 4.351.518 6.767-.836 2.402-2.097 1.98-1.301 5.152.783 3.159.557 8.267 2.097 6.768 1.526-1.499.916-2.256 1.858-5.632.929-3.377 1.672-5.633 2.84-4.075 1.155 1.557 1.951.858 3.251 1.979 1.301 1.135.982 3.653 2.416 4.191 1.433.539 2.097-2.474.69-4.992-.093-.16-.173-.291-.252-.436-.067-.102-.133-.204-.199-.291-.027-.029-.054-.073-.067-.088-.079-.102-.146-.189-.225-.262-.053-.072-.12-.131-.173-.189-.053-.058-.119-.102-.172-.145a4 4 0 00-.332-.262c-.451-.291-.85-.495-1.248-1.004a2.7 2.7 0 00-.172-.248c-.04-.058-.08-.131-.12-.189-.039-.073-.079-.146-.119-.233a3.96 3.96 0 01-.226-.538 7.487 7.487 0 01-.119-.321c-.969-2.896.053-3.318-2.402-4.992-2.469-1.659-3.066-5.152-2.654-6.505.424-1.339 1.313-1.237 1.672-4.555.013-.204.053-.408.093-.597.013-.146.053-.291.093-.422a7.492 7.492 0 01.477-1.426 5.668 5.668 0 01.398-.786c.213-.379.452-.728.677-1.106.146-.248.292-.481.451-.743a9.072 9.072 0 00.797-1.804c.929-2.853 0-2.576 2.88-3.071 2.866-.48 1.021-3.857 4.684.335 3.676 4.177 5.017 9.241 6.357 7.306 1.354-1.936-2.508-3.493-3.424-7.365l-.04-.014zm91.545-16.97c-2.06 2.096-4.42 1.718-4.46 4.512-.05 2.78.65 3.536 2.27 1.557 1.62-1.994 3.03-3.769 3.81-4.992.78-1.237-.19-2.255-1.62-1.077zm-8.71 13.943c-.46-1.237-1.35-2.62-2-.379-.17 2.533-2.69 4.192-1.15 4.512 1.53.32 3.62-2.896 3.15-4.133zm-5.21 8.019c-.13-1.019-1.382-2.183-1.82-.917-.332 1.077-.12 2.183.61 1.921.73-.276 1.35.029 1.21-1.004zm.95-12.516c-.34.582-.09 1.208.51 1.12.61-.087 1.1-.247 1.19-.858.1-.626-.98-1.747-1.7-.262zm-33.081 42.744c-1.898 1.921-4.592 2.619-5.017 5.035-.026.146-.053.291-.066.437 0 .102-.027.189-.04.291 0 .087-.013.175-.026.247-.04.393-.027.655.026.801.159.349.637-.044 1.5-1.019 1.446-1.615 5.481-3.012 5.998-4.613.518-1.616-.093-2.635-2.362-1.179h-.013zm-12.634 7.582c-1.434 1.121-3.53 3.537-1.58 3.639 1.938.116 3.995-.903 4.592-2.678.611-1.776-1.115-1.979-3.026-.961h.014zm-9.94 6.011c-1.208 2.62-3.026 2.998-3.438 4.613-.411 1.601 1.712.903 3.942-1.018 2.229-1.936 3.105-1.878 3.397-3.973.279-2.096-2.189-2.737-3.901.378zm-6.822 6.171c-.371-1.456-1.314-2.373-2.694-.655-1.022 2.314-4.406 2.634-4.366 4.948.053 2.299 1.075-.218 3.676-1.557s3.756-1.295 3.384-2.736zm45.268-30.854c-.796 1.615-1.699 1.644-2.11 2.721-.425 1.063.955 1.281 1.977-.058 1.022-1.339 2.057-4.439.133-2.663zm7.724-12.443c-.571.989-1.181 1.6-.292 2.197.876.582 1.579 1.121 1.831-.131.252-1.266-.624-3.216-1.539-2.066zm-3.039 7.378c-.969.641-.69 1.339.026 1.659.717.335 1.433.67 1.526-.64.093-1.324-.066-1.499-1.552-1.019zm-114.49-88.981c-.173-1.324-.836-.247-1.898-.829-.358-.204-.876-.612-1.42-.961-.133-.087-.265-.175-.398-.247-.398-.248-.783-.408-1.088-.408h-.107c-.039 0-.066 0-.092.029-.054.029-.12.058-.173.102-.04.029-.066.073-.093.116a2.315 2.315 0 01-.093.146.517.517 0 00-.053.189 2.602 2.602 0 00-.053.51c-.053 1.106-1.048 1.397-1.194 2.721-.133 1.325-.106.349 1.115 2.198 1.234 1.863.69 3.376 1.99 2.314 1.314-1.077.611-1.325 1.951-2.853 1.354-1.528 1.818-1.717 1.619-3.041l-.013.014zM1286 286.133c-.46-1.718-4.59-2.518-7.56-4.396-2.98-1.877-3.22-2.794-5.49-5.967-2.28-3.172-4.48-2.619-7.08-1.862-2.6.756-6.08-.452-7.83-1.208-1.74-.743-5.11 1.892-3.72 4.657 1.4 2.765 1.3 6.156-.62 6.331-1.94.189-3.28-1.98-5.38-3.144-2.09-1.164-3.06-2.954-2.73-4.657.32-1.688 1.82-3.915.84-6.244-.97-2.328-1.44-3.522-4.25-5.152-2.8-1.644-5.08-1.179-6.38-3.158-1.31-1.994-3.08-3.726-7.21-5.065-4.13-1.338-6.74-2.299-9.44-5.53-2.68-3.216-6.82-5.312-10.72-6.389-3.9-1.062-4.88-2.198-7.75-4.992-2.88-2.78-8.93-5.094-12.49-5.239-3.55-.131-6-1.688-8.5-2.838-2.51-1.164-3.79-2.343-5.22-3.173-1.45-.829-7.79-.189-10.26-.946-2.45-.742-7.52-1.12-10.12-.538-2.61.596-4.46.436-8.31-1.878-3.85-2.299-6.04-1.339-7.25.597s-3.3 1.339-5.89-.539c-2.6-1.877-2 1.82-2.56 4.032-.57 2.197-2.51 2.576-1.08 4.672 1.44 2.095 4.09 1.877 4.52 5.69.41 3.813-1.04 6.069-5.91 5.909-4.87-.16-6.08.858-7.06-2.576-.98-3.435-3.65-3.42-6.48-3.639-2.82-.203-3.34-3.216-1.86-5.53 1.49-2.314 7.77.8 8.03-2.372.28-3.158-3.43-4.177-6.5-4.934-3.06-.742-6.17 3.435-9.2 5.953-3.02 2.532-5.66 1.891-7.98 1.615-2.33-.262-5.95-1.877-9.11-1.877-3.16 0-6.13-.423-8.41-1.878-2.27-1.455-5.96.67-10.89.451-4.92-.218-8.73 2.896-15.77 5.793-7.06 2.896-7.25-.641-8.83-4.614s1.49-6.549 2.79-10.318c1.3-3.755-.75-6.229-3.2-9.46-2.47-3.217-11.15-6.389-17.28-6.389-6.13 0-17.61-.379-21.22.756-3.62 1.121-8.361 2.038-11.52 2.096-3.145.044-5.64-.669-9.21-.509-3.57.16-5.163 3.493-7.1 1.659-1.951-1.819-4.977-1.921-7.989-1.557-3.013.378-3.305-3.275-4.499-6.884-1.208-3.595-4.831-2.3-5.11-6.171-.278-3.857 2.907-5.501 1.235-9.911-1.673-4.395-3.345-2.896-7.154-3.478-3.808-.597-7.71.902-10.815 4.293-3.106 3.376-4.088 5.37-8.361 6.447-4.274 1.077-5.242-1.077-4.353-2.197.876-1.121 4.353-1.82 4.432-3.493.067-1.659-.225-2.416-1.181-3.362-.955-.946-4.698.029-6.635.829-1.951.801-1.261-.509-.491-1.862.769-1.339 4.671-1.689 4.459-3.784-.213-2.096-3.278-1.252-6.49-2.649-3.198-1.397-7.525-2.096-13.231-.859-5.707 1.237-7.246-.538-10.816-2.416-3.57-1.877-3.265.189-2.628 3.304.651 3.114-3.477 3.551-5.255 2.212-1.765-1.353-4.738-.218-6.543 1.819-1.818 2.038-3.211 3.377-2.097 4.934 1.115 1.557 3.889-.961 4.353 1.077.465 2.037-.464 3.755.093 6.709.558 2.955-1.539 4.454-4.286 4.235-2.734-.218-3.663-2.037-4.592-3.216-.916-1.179-3.384.538-4.459 2.838-1.075 2.314-3.225 5.137-4.751 2.721-1.54-2.415-3.53-3.594-6.132-2.299-2.601 1.281-1.207 4.395-4.047 3.056-2.84-1.339-3.437 1.223-7.007 2.416-3.57 1.179-3.663-2.096-5.84-3.551-2.176-1.441-6.29.626-9.727-.786-3.438-1.412-2.88-4.395-5.946-7.844-3.065-3.435-4.552 5.05-4.923 8.921-.372 3.871-.279 4.395-2.973 5.909-2.694 1.499-1.301 7.204-5.76 6.127s-4.273-4.715-10.033-7.844c-5.759-3.115-10.019-9.679-8.175-13.011 1.858-3.319 4.459-4.832 3.345-8.602-1.115-3.754 3.344-3.536-.279-10.1-3.623-6.549-5.667-3.653-10.59-6.986-4.924-3.332-9.967 2.009-11.546.088-1.58-1.936-5.256-.975-8.587-1.616-3.344-.64-5.335-2.954-8.082-3.973-2.734-1.019-7.034 3.304-7.166 6.535-.133 3.216 3.848 8.543-1.354 8.324-5.202-.203-2.694-2.517-6.357-2.299-3.676.204-4.233 1.601-7.763 1.921-3.53.335-6.463.218-9.715-2.518-3.251-2.736-4.18.757-6.967.757s-5.056-2.852-4.552-5.472c.504-2.634-.173-4.497-3.928-3.522-3.769.96-7.804 1.12-12.449.102-4.631-1.019-5.428-2.576-7.843-2.14-2.415.422-3.809 3.158-8.4 2.838-4.592-.32-5.256-.32-6.41 1.98-1.155 2.314 1.897 3.114 1.619 4.831-.279 1.718-1.075 1.674-2.323-.742-1.261-2.416-3.158-1.615-3.118-4.351.053-2.736 2.282-2.358.65-4.832-1.619-2.474-2.907-1.878-3.663-.408-.77 1.485-2.999.859-7.087 1.005-4.087.131-4.472-1.863-6.781-2.635-2.309-.786-4.021-2.256-6.025-1.964-1.991.291-4.168 1.644-4.353 3.492-.186 1.849 2.906 1.82 4.711.786 1.818-1.048 3.596-.887 3.809.728.212 1.601-4.38 1.543-6.039 2.94-1.672 1.397-2.229 2.183-4.167 2.401-1.937.219-.955 1.237-3.092 1.907-2.137.669-4.432-1.223-7.246.218-2.813 1.455-3.663 3.042-7.127 2.474-3.463-.567-4.565-.466-7.259.83-2.694 1.295-3.49 3.9-4.459 1.964-.982-1.935 1.314-4.788 2.482-5.69 1.154-.917 3.464-.32 4.95-1.237 1.486-.917 2.482-2.969 5.122-4.526 2.641-1.558 5.614.582 7.432-1.878 1.805-2.474 3.345-6.01 8.069-6.331 4.738-.32 3.676-1.295 5.76-5.37 2.097-4.075 3.384-2.736 6.118-3.056 2.747-.32 5.945-1.557 7.339-3.711 1.393-2.14 3.344-2.678 6.131-3.435 2.787-.742 6.476-3.202 7.219-5.458.744-2.241.226-2.838-.836-4.831-1.075-1.994-1.021-2.693.836-2.911 1.858-.204 2.84.058 3.066-1.761.226-1.834-1.579-1.717-2.601-4.512-1.022-2.794-1.301-4.395-3.105-5.094-1.805-.698-.611 3.377-2.548 3.319-1.951-.044-1.354-1.718-1.036-4.454.332-2.736-1.433-5.152-4.087-4.933-2.641.218-5.601-.248-7.127-1.965-1.539-1.718-6.927-.48-10.869.597-3.955 1.062-7.06-.175-11.705-.655-4.631-.481-2.84 2.692-6.224 4.089-3.384 1.383-7.432-.174-6.782-2.576.651-2.416 4.791-3.493 4.406-5.428-.371-1.936-2.229-1.121-7.1-1.82-4.87-.698-3.105-.756-5.613-.538-2.509.218-5.853 2.416-7.432.8-1.579-1.6-.465-3.158 3.304-4.177 3.756-1.033 6.689-2.212 6.118-3.973-.557-1.775-5.335-1.178-7.1-2.634-1.765-1.455-10.378-3.26-14.704-.67-4.313 2.577-5.335 4.512-8.812 7.525-3.49 2.998-6.636 2.736-7.75 6.447-1.115 3.711 1.951 4.032-.332 7.626-2.269 3.595-9.94 1.921-12.077 1.237-2.137-.698-4.632.903-2.402 1.921 2.23 1.019 4.127 3.552 2.455 4.09-1.672.524-5.839-2.096-7.843-1.237-2.004.859-4.99 2.183-7.166 2.547-2.19.378-5.256 3.711-8.082 2.532-2.841-1.179-3.769 1.557-5.017-.858-1.261-2.416 5.707-3.173 7.286-5.109 1.579-1.921-2.747-2.576-5.574-1.499-2.84 1.077-5.375 2.795-8.533 3.711-3.159.903-3.676.262-8.308.961-4.645.699-3.384 2.678-5.72 4.715-2.322 2.052-4.512-.102-8.122 1.674-3.623 1.761-7.033 1.965-11.678 3.202-4.645 1.222-3.438 1.397-7.711 1.921-4.273.538-4.127-.422-7.02 1.397-2.88 1.834-3.066 4.25-6.689 6.331-3.623 2.096-7.06 2.416-8.082 4.832-1.022 2.416-2.734 6.01-5.335 6.607-2.601.582-6.078 2.096-3.291 3.377 2.787 1.295 4.738.16 6.582 2.736 1.858 2.576 3.159.116 5.76 1.615 2.601 1.499 1.619 2.678.186 4.774-1.434 2.095-5.8-.539-7.844-2.038-2.043-1.499-4.989-.509-6.901.131-1.897.641-2.919 2.46-5.799 3.158-2.88.699-4.791-2.139-7.06-.8-2.27 1.339-3.889 2.794-7.432 1.717-3.53-1.077-7.644.073-10.298.393-2.641.32-4.765.961-6.782.786-2.017-.189-5.295.262-4.671 2.46.637 2.212-.757 3.478.743 5.326 1.513 1.849 2.681 2.343 2.176 5.894-.517 3.537-.517 4.396 3.384 6.928 3.902 2.518 5.574.742 8.229 2.998 2.64 2.256 1.897 3.013 4.313 4.89 2.415 1.878 4.751.902 5.905 3.813 1.155 2.896-.411 3.377-1.897 6.011-1.487 2.619-.744 3.857 1.247 7.087 2.004 3.231 2.92 5.152 1.672 6.826-1.261 1.659-2.229-1.455-3.809-.16-1.579 1.281-1.911 5.851-4.233 5.691-2.323-.161-.412-2.838.969-4.614 1.393-1.761 3.397-5.05 1.619-7.306-1.765-2.256-4.459.539-6.822-1.994-2.362-2.518-.278-5.909 3.345-7.524 3.623-1.615 3.662-2.838 2.508-4.075-1.155-1.237-6.463.32-9.515.262-3.066-.044-4.34-3.362-6.809-5.021-2.455-1.659-5.427-1.616-7.936-3.275-2.508-1.659-3.676-2.474-7.286-2.095-3.623.378-6.542-.16-6.356-2.78.172-2.634-2.19-2.416-4.313-1.397-2.137 1.018-2.19 3.274-.983 5.632 1.208 2.358 3.252 1.601 5.335 3.376 2.084 1.776 1.115 3.057-.968 5.152-2.097 2.096-3.955-.16-6.41-3.114-2.455-2.954-6.171-2.3-7.525-.582-1.354 1.717-1.619 3.216 1.858 7.146 3.49 3.915 5.202 2.416 10.869 3.813 5.667 1.397 5.614 4.933 2.283 6.127-3.345 1.179-2.509-1.499-5.388-3.057-2.88-1.557-2.641 1.339-6.742.641-4.088-.699-2.044-2.081-5.335-1.383-3.305.684-3.252 2.78-5.056-1.717-1.819-4.512.929-2.576.331-6.127-.61-3.537-1.022-3.697.929-6.986 1.951-3.275.744-6.069-.743-9.518-1.486-3.435-2.973-4.191-4.419-2.736-1.433 1.455.889 2.358 2.601 6.665 1.712 4.294-2.004 5.051-3.53 6.637-1.54 1.586-4.486 2.081-6.184 2.445-1.699.378-2.495 1.659-3.345 3.886-.862 2.241-3.543 1.499-3.105 3.42.411 1.906 3.225 2.198 4.207 4.555.969 2.358 1.181 2.78 3.716 6.098 2.521 3.333.703 5.865-.956 7.743-1.672 1.877-.929 1.994-1.951 5.588-1.022 3.595-1.353 3.697.372 6.389 1.725 2.678.239 3.377 1.393 6.128 1.155 2.736 5.15.8 7.711.436 2.561-.378 3.158-2.416 6.967-2.474 3.809-.058 3.995 1.877 8.122 2.576 4.141.699 3.782 1.266 5.972 3.042 2.177 1.775.04 2.518 2.322 6.665 2.283 4.134 2.641 2.795-.371 6.011-3.026 3.216-1.447 2.794-.465 4.832.969 2.037 5.097.64 8.507 1.659 3.384 1.019 8.679 5.85 7.14 7.204-1.526 1.353-6.171-2.198-8.493-4.235-2.323-2.038-6.198-.131-8.812-1.645-2.602-1.499-3.902-2.197-4.221-5.312-.331-3.114 1.991-6.447-.278-8.863-2.283-2.416-1.261-2.634-5.296-5.37-4.047-2.736-4.22-.32-8.772.96-4.552 1.296-7.219 2.664-7.166 6.579.053 3.929 3.065 3.012 3.902 6.447.836 3.434.039 4.395-2.694 6.01-2.748 1.616-3.995 2.416-4.048 5.633-.053 3.216.093 4.293-3.57 6.607-3.663 2.3-4.871 2.139-6.317 3.537-1.447 1.397-2.601 4.933-1.818 8.659.796 3.697-2.92 1.936-5.256-.975-2.322-2.896-.61-4.017-4.459-5.37-3.848-1.339-5.481 2.357-9.475.96-3.995-1.397-1.951-2.474-6.689-4.672-4.738-2.197-3.769-1.12-2.362-2.619 1.393-1.514 4.738-1.514 7.617-.117 2.867 1.398 3.199 1.077 6.317 1.019 3.106-.044 6.928.248 7.684-1.644.757-1.878 2.23-1.878 4.207-5.08 1.978-3.201 1.593-3.696 3.544-5.996 1.937-2.314 2.362-1.455 3.357-3.929.996-2.46 0-2.882-.292-5.138-.278-2.256 2.721-1.586 3.305-3.973.584-2.401-.81-3.798-3.424-4.73-2.601-.946-3.782-1.877-3.995-3.973-.212-2.096.133-2.663-.265-3.798-.398-1.136-1.155-2.285-.677-3.857.491-1.543 2.628-3.697 1.42-7.321-1.208-3.638-1.738-1.746-1.738-4.439 0-2.692 2.986-4.307 2.933-6.782-.054-2.474.053-6.389-3.106-9.721-3.158-3.333-3.026-1.776-4.087-4.992-1.062-3.231 2.415-3.595 3.861-5.647 1.434-2.038 3.066-2.678 3.424-5.953.372-3.274 2.004-3.856.372-6.767-1.619-2.911-2.88-.495-6.038-2.692-3.159-2.198-5.442-1.776-8.547-.859-3.105.917-7.206 1.077-8.865-.32-1.672-1.397-4.512.378-6.184 6.287-1.659 5.909-1.925 10.391-4.897 15.5-2.973 5.093-6.357 3.376-10.777 5.632-4.406 2.256-3.848 3.813-3.569 5.748.278 1.922 2.879 1.398 4.273 1.121 1.393-.262 2.827 1.994 1.526 5.21-1.301 3.217.239 3.057-.093 6.71-.332 3.638-2.296 1.106-2.999 3.842-.69 2.736-1.301 4.613.464 6.505 1.765 1.878 2.416-2.096 4.181-3.158 1.765-1.077 3.384.204 4.923 3.435 1.54 3.216.651 3.158 2.88 5.909 2.23 2.736 3.849.64 4.313 3.056.465 2.416-1.765 2.736-2.694 5.807-.929 3.056-3.769 4.293-4.923 2.357-1.155-1.935-2.283-2.896-4.977-5.093-2.681-2.213-6.41-1.077-8.029-4.352-1.619-3.274-4.751-1.746-8.003-3.202-3.251-1.455-3.344.539-5.759.32-2.416-.218.04-3.216-3.265-6.068-3.291-2.838-6.357-1.281-12.581-1.98-6.224-.698-8.401-3.012-12.448-1.935-4.048 1.077-4.088 1.615-5.056 3.915-.983 2.314 2.176 5.428 3.53 6.607 1.353 1.179 2.415 4.075-1.022 5.851-3.437 1.775-4.977-.757-6.171 1.877-1.208 2.634-.452 4.643-2.721 4.599-2.269-.058-3.53-1.077-3.809-4.41-.278-3.318 1.155-5.952-2.694-5.53-3.848.436-3.663 2.634-7.524 3.973-3.849 1.353-1.619 3.711-4.831 4.512-3.198.8-4.22-2.096-8.733-1.878-4.512.218-4.87-.262-7.524 1.077s-.65 6.069-2.694 6.709c-2.057.641-3.106-3.594-4.791-3.056-1.672.524.225 3.1-1.354 4.614-1.579 1.499-3.304-1.077-5.202-.655-1.898.436-1.433 2.91-2.787 3.769-1.354.859-6.038 1.979-6.821 5.254-.797 3.275-3.769 5.312-4.141 1.819-.371-3.478 2.561-5.312 3.902-6.607 1.353-1.295 2.694-.757 4.366-2.416 1.672-1.674 1.354-4.192 3.995-5.909 2.641-1.717 4.087.597 4.87-.96.796-1.558-1.5-2.984-.345-5.138 1.155-2.139 6.742-3.653 4.871-4.351-1.858-.684-4.924 0-7.525 1.077-2.601 1.076-2.933 2.532-4.977 2.736-2.044.218-3.251 1.397-2.229 2.197 1.021.815 1.114 2.751-.465 4.032-1.579 1.295-2.176-.699-2.322-2.358-.133-1.674-1.739-.626-3.504-.568-1.765.044-3.809-.596-6.357 1.281-2.561 1.877-1.818 1.994-5.388 3.711-3.57 1.718-4.592 3.318-7.485 5.152-2.866 1.819-3.065-.116-3.994.102-.916.218.239 1.819-1.075 3.158-1.301 1.354-5.574.117-6.171 3.013-.611 2.896-.611 6.447-1.858 7.902-1.261 1.456-4.008 1.398-7.286 1.878-3.782.189-6.158.029-7.432-1.776-1.274-1.804-1.42-2.197-3.464-4.046-2.043-1.862-2.203-.567-2.747-1.892-.531-1.309-.292-2.445 1.115-3.158 1.42-.727 1.354-1.484 1.818-2.314.465-.829 2.522-1.295 4.273-1.411 1.739-.102 4.778.305 5.362-1.208.597-1.543-1.274-3.697-2.694-4.92-1.42-1.207-2.323-2.605-3.889-4.002-1.539-1.397-4.844-2.401-7.126-1.877-2.283.509-6.875.96-7.658.407-.796-.567-3.981-2.299-3.145 0 .836 2.314 3.53 1.776 5.149 3.333 1.619 1.557.213 4.483.279 6.229.066 1.747.425 4.424-.995 5.443-1.42 1.033-1.885 3.158-1.858 4.73.026 1.586 1.619 1.281 2.972 1.747 1.354.451 2.986 2.168 2.615 5.544-.372 3.391-1.115 4.352-2.92 5.967-1.818 1.601-.836 3.915-2.747 2.838-1.898-1.077-1.619-2.197-4.831-3.696-3.198-1.514-3.012 1.441-4.737 0-1.712-1.456-2.867-1.354-4.406.582-1.54 1.936-2.92 4.832-5.017 5.472-2.097.655-4.512.815-6.542 2.736-2.044 1.936-4.937 2.62-5.946 4.177-.995 1.557-.557 3.362 1.274 4.861 1.832 1.499 3.066 2.998 3.371 4.395.292 1.397.066 1.543-1.659 1.936-1.712.407-.677 1.557-2.561 2.401-1.872.83-4.14-.291-5.282-1.164-1.141-.888-3.65-2.343-5.216-2.343-1.566 0-5.6-1.019-6.41-2.62-.81-1.586-3.689-2.387-5.109-2.081-1.42.291-1.646 1.499-2.296 2.198-.65.698-1.898 2.663.186 4.162 2.097 1.499 2.017 4.133 3.835 4.701 1.818.567 2.668-.481 3.822-.422 1.168.043 1.487 1.717 2.203 3.303.717 1.587 1.487 3.1-.252 3.435-1.738.349-2.11 2.125-3.756 1.426-1.659-.698-2.415-.247-4.631-.451-2.203-.204-4.804-1.499-5.76-3.435-.955-1.921-1.778-3.914-3.676-3.638-1.911.262-2.375.539-4.605-.131-2.23-.669-2.177-1.659-2.11-3.085.066-1.427 1.367-2.78.677-4.89-.69-2.125-1.898-2.504-2.455-3.813-.571-1.325-.173-3.755.836-4.832 1.022-1.063 1.486-2.241-.093-4.963-1.58-2.722-2.562-3.013-5.043-4.279-2.482-1.266-3.65-2.285-4.46-3.944-.809-1.673-4.007-3.158-5.799-4.191-1.778-1.048-1.831-2.285-1.314-3.304.505-1.019 1.779-.538 2.947.699 1.167 1.237 3.543 2.517 5.414 3.216 1.871.699 3.185.131 5.202 1.208 2.018 1.077 4.327.888 7.525 1.688 3.212.801 3.026 1.659 7.67 3.158 4.632 1.514 6.265-.64 9.198.975 2.92 1.601 7.007 3.159 12.488 1.499 5.48-1.659 4.91-1.499 7.564-2.415 2.641-.917 3.783-3.464 6.477-5.778 2.68-2.3 3.065-3.653 3.384-5.414.332-1.776-.743-3.013-1.951-5.05-1.208-2.038-.557-3.217-1.354-5.094-.796-1.878-1.579-.757-4.047-2.416-2.456-1.659-1.54-2.518-3.345-3.115-1.818-.596-2.6-.756-6.184-1.12-3.57-.379-2.853-1.266-3.928-2.882-1.075-1.615-3.623-1.557-4.964-2.256-1.353-.698-3.543-1.819-5.162-3.813-1.62-1.979-2.641-2.037-4.406-2.459-1.765-.437-3.995-.597-5.481-2.474-1.487-1.878-3.716-3.377-6.277-2.576-2.562.8-4.685 1.499-6.225.32-1.539-1.179-2.163-1.543-3.317-2.183-1.168-.641-1.58.757-3.252 2.197-1.672 1.456-1.672-.043-3.026-2.037-1.353-1.979-1.619-.379-3.304-.262-1.672.102-2.508-.058-3.849-1.456-1.353-1.397-.557-1.6 2.044-1.018 2.601.596 3.344-.539 3.623-1.499.279-.961-.836-1.878-2.64-1.994-1.819-.102-2.88-.582-3.995-1.717-1.115-1.121-2.097-1.922-3.265-.685-1.155 1.223-.783 2.242-1.195 3.435-.424 1.179-1.95 1.441-3.808-.174a6.16 6.16 0 00-.664-.51c-.106-.087-.212-.131-.318-.189a1.367 1.367 0 00-.2-.116h-.026c-.093-.044-.173-.088-.252-.117-.093.64-.796 1.936-1.672 2.969-.73.844-1.58 1.543-2.323 1.63-.252.029-.451.044-.663.058-1.66.146-4.353.393-5.84 1.587-.796.64-1.18 1.339-1.619 2.168-.53.99-1.154 2.125-2.614 3.566-1.34 1.295-2.362 1.703-3.305 2.095-.968.393-1.844.743-2.88 2.096-1.313 1.718-1.154 1.936-.026 3.333a29.109 29.109 0 011.858 2.503c1.725 2.605 4.247 4.832 6.264 6.608 1.208 1.062 2.243 1.979 2.84 2.736.89 1.12 1.115 2.183.81 3.318-.266 1.062-.996 2.183-2.018 3.478a14.637 14.637 0 00-2.083 3.653c-.544 1.383-.81 2.722-.81 3.711 0 .641-.146 1.208-.292 1.761-.292 1.165-.584 2.314.836 4.075.412.51.823 1.005 1.208 1.456 1.659 1.979 2.946 3.536 3.968 5.909.836 1.979.61 2.197-.16 2.91-.384.35-.955.888-1.565 2.198-1.062 2.256-.863 3.74-.624 5.53.106.801.212 1.645.252 2.678.053 2.154 1.155 3.187 2.057 4.046.451.437.876.83 1.142 1.31.305.538.424.975.53 1.383.173.625.332 1.208 1.434 2.168.995.859 1.54 1.485 1.778 2.343.226.83.12 1.79-.2 3.318-.344 1.645-.941 2.067-1.42 2.402-.291.218-.53.378-.477 1.237.08 1.281 1.659 1.863 3.915 2.721 1.048.379 2.23.83 3.477 1.412 3.345 1.586 2.734 3.377 1.818 6.127-.292.903-.637 1.921-.85 3.056-.45 2.344-2.096 4.105-4.26 5.473-2.11 1.324-4.71 2.27-7.152 3.027-3.41 1.062-3.756 1.877-4.446 3.478a16.08 16.08 0 01-1.101 2.256c-.531.888-.996 1.79-1.46 2.663-1.235 2.314-2.323 4.41-4.207 6.025a45.87 45.87 0 01-.69.568c-2.057 1.717-3.756 3.158-3.199 6.04 0 .058.053.262.093.451.16.029.305.029.451 0h.266c.252-.029.517-.102.796-.189.16-.044.332-.102.518-.175 1.46-.538 1.579-2.256 2.627-1.965 1.035.292.916 2.082 1.42 3.275.491 1.208 1.434.407 2.402 1.048.982.64 1.142 2.023 3.305 1.717 2.163-.291 2.64-1.135 3.65-.48.995.64.915 3.013-.757 2.634-1.672-.364-3.437-.029-4.671.786-1.235.815-1.606 1.164-2.986 1.106-1.394-.058-1.951 1.281-2.947 1.223-.995-.044-1.672-.568-2.349.247-.517.626.345 1.921.107 2.78.066.131.146.291.172.32.252.524.358 1.426-.093 2.605-.332.888-.982 1.95-2.11 3.158-.438.466-.85.888-1.247 1.266-1.898 1.892-3.225 3.202-2.19 6.448.73 2.241 1.367 2.94 1.99 3.609.518.553 1.01 1.091 1.513 2.285.505 0 .996.029 1.447.087 1.314.204 2.402.786 3 2.023.663 1.368.623 2.751.57 4.206-.027 1.019-.066 2.081.16 3.158.357 1.674-.293 2.882-.97 4.119-.45.83-.915 1.703-1.008 2.678-.186 2.023.371 5.952.57 7.306.797-.233 2.057-.393 3.371-.393s2.628.145 3.663.524c1.075.378 1.818.771 2.508 1.135.77.408 1.487.786 2.562 1.092 1.3.363 2.402.32 3.57.276.65-.029 1.327-.044 2.083 0 .093 0 .186 0 .279.029 1.048.131 1.964.684 2.601 1.601.637.902.995 2.169.929 3.726 0 .16 0 .335-.027.495-.185 2.037.28 3.158.77 4.337.292.684.584 1.397.796 2.314.412 1.746.89 2.634 1.858 4.409.385.699.85 1.543 1.407 2.635 1.049 2.023 1.274 2.576 1.46 3.07.172.452.332.83 1.102 2.285.835 1.587 1.685 1.616 2.627 1.645.783.029 1.62.044 2.601.742 1.195.888 1.62 1.907 1.58 2.984-.054 1.018-.531 2.066-1.155 3.056-.73 1.193-1.871 1.645-3.105 2.125-.85.335-1.766.684-2.548 1.324-.876.699-1.275 1.383-1.394 2.14-.133.771 0 1.659.16 2.692.158 1.048.37 1.659.57 2.27.199.568.398 1.136.53 1.965.877 0 1.7.175 2.589.349 1.42.291 2.986.612 5.043.262a31.837 31.837 0 002.64-.567c1.858-.451 3.212-.786 5.468-.233 2.442.582 2.814 1.906 3.517 4.424.252.932.57 2.038 1.075 3.348 1.141 2.998 1.5 2.939 2.31 2.838.424-.059.955-.131 1.685.029 1.274.247 2.242.8 3.105 1.833.823 1.005 1.5 2.431 2.203 4.498.65 1.964 1.3 3.478 2.084 4.38.716.844 1.592 1.15 2.747.757l.265-.087c2.548-.844 4.712-1.572 8.308-.131 1.845.742 2.68 1.28 3.424 1.79.717.48 1.38.902 2.866 1.426.425.146.69.247.943.335 2.349.8 3.318 1.135 6.662 3.362 2.481 1.644 3.53 1.935 4.631 2.226.531.146 1.089.291 1.819.597.265.116.53.247.756.378.796.495 1.367 1.136 1.659 1.922.292.785.305 1.702 0 2.692-.066.233-.173.466-.279.728-.61 1.368-.65 1.921-.69 2.94-.026.698-.066 1.6-.292 3.056-.292 1.906-.451 2.94-.889 3.798-.451.873-1.115 1.514-2.402 2.664-1.234 1.062-2.362 1.6-3.424 2.11-1.141.538-2.203 1.048-3.185 2.154-1.805 2.023-1.845 2.969-1.964 5.807v.131c.093 0 .199-.029.292-.058.026 0 .066 0 .093-.03.106-.029.212-.043.318-.072.12-.029.239-.073.345-.102.053 0 .106-.029.16-.058.132-.03.278-.088.41-.146a6.25 6.25 0 00.757-.364c.093-.043.173-.102.252-.16a4.39 4.39 0 00.97-.888c.052-.087.119-.16.172-.247.902-1.557 3.012-4.002 3.782-2.285.756 1.717-.345 2.037-1.725 3.144-1.367 1.106-1.871 2.357-4.273 3.463-2.39 1.106-1.354 1.106-3.133 2.242-1.791 1.12-2.349.072-3.503.567-1.155.48-.677 2.358.61 3.333 1.274.961 1.633 2.998.213 3.929-1.42.946-1.779 3.275-2.575 5.356-.796 2.067-4.857 2.576-6.317 2.503-1.46-.087-1.062 2.445.027 2.78 1.088.349 3.185 2.925 4.419 4.119 1.234 1.208 4.486 2.78 7.458 3.522 2.973.757 3.716 1.775 6.198 4.235 1.42 1.426 3.105 3.624 4.645 5.399.278-.232.65-.538.836-.713 2.455-2.081 4.95-4.177 11.904-.887 3.557 1.673 5.255 1.542 6.689 1.426.371-.029.73-.058 1.101-.058 1.221 0 2.522.334 4.831 2.11 2.19 1.703 3.172 2.911 3.928 3.871 1.128 1.412 1.765 2.198 5.68 3.158 3.066.743 4.751.553 5.972.408 1.486-.175 2.376-.291 4.101 1.164 1.393 1.164 1.752 1.907 2.044 2.503.305.641.53 1.092 2.601 1.95 1.446.597 2.76.946 3.968 1.296 2.097.567 3.928 1.091 5.68 2.547.809.684 1.46 1.324 1.991 1.862 1.114 1.121 1.738 1.747 2.601 1.267.491-.262.796-.743 1.141-1.267.624-.945 1.327-1.979 3.172-2.474.066-.029.491-.131.902-.247.412-.102.836-.204.916-.218.478-.102 1.141-.233 1.566-.335 2.76-.67 5.468-1.324 9.874.058 1.977.626 4.313.771 6.741.48-.876-2.779-4.379-13.84-5.613-18.876-1.035-4.235-1.235-7.684-1.553-13.185-.12-2.023-.252-4.323-.465-7.103-.57-7.757-2.322-8.47-3.981-9.139-.464-.189-.982-.408-1.42-.728h-.026v-.029h-.027c-.292-.233-.65-.48-.955-.713-1.235-.888-1.885-1.368-2.283-2.081-.438-.786-.491-1.703-.611-3.682l-.026-.539c-.212-3.449-1.487-4.366-3.597-5.88a35.25 35.25 0 01-1.911-1.426c-1.114-.888-2.096-1.266-2.986-1.615-1.831-.713-3.317-1.281-4.857-5.327-.69-1.819-1.314-2.882-1.778-3.682-1.128-1.907-1.473-2.489-.093-7.481 1.234-4.424 1.5-7.247 1.699-9.358.106-1.222.199-2.226.451-3.201.252-1.005.73-1.223 1.42-1.005.451.16.995.539 1.632 1.005 1.234.887 2.907 2.081 4.964 2.285.53.043.982.087 1.366.087 1.115 0 1.673-.204 1.858-.568.253-.465-.066-1.368-.57-2.547-.239-.553-.531-1.062-.796-1.557-.133-.247-.279-.495-.385-.713-.85-1.645-1.208-3.027.955-4.512 1.394-.96 3.265-2.255 5.176-3.478 1.911-1.222 3.849-2.372 5.322-3.042 1.353-.626 1.937-1.135 2.442-1.586.61-.539 1.101-.975 2.481-1.397 1.433-.422 2.177-.131 3.053.189.69.262 1.486.568 2.879.495 1.261-.058 2.283-.48 3.225-.873 1.38-.568 2.641-1.092 4.393-.568 2.19.655 3.849.684 5.879.728.611 0 1.248.029 1.938.058 1.605.073 3.822.946 5.733 2.096 1.884 1.135 3.49 2.561 3.994 3.827.452 1.15.332 2.372.253 3.406-.027.276-.054.538-.054.757-.026.582.04.989.518 1.004.743.043 1.287-.524 1.911-1.179.73-.771 1.553-1.645 2.92-1.921 1.632-.349 2.203.32 2.813 1.033.345.408.704.83 1.394.946 1.34.233 2.256-.596 3.238-1.47.292-.247.584-.509.916-.786.756-.596 1.459-1.048 2.441-1.237.956-.16 2.164-.043 3.902.539 1.978.655 4.353.131 6.251-.291 1.314-.291 2.415-.524 3.079-.291.716.233 1.154.655 1.698 1.208.69.669 1.58 1.557 3.491 2.401 1.035.451 1.791.946 2.468 1.383 1.447.946 2.402 1.571 4.924.625 1.871-.727 3.623-.509 5.229-.349 1.658.189 3.171.364 4.379-.626 1.818-1.484 2.097-2.299 2.588-3.725.172-.481.358-1.034.637-1.703.464-1.106.345-1.79-.279-2.285-.756-.568-2.15-.961-4.101-1.412-1.194-.276-2.322-.291-3.211-.32-.956 0-1.699-.029-2.124-.349-.663-.481-.623-1.368.412-3.26 1.141-2.082 2.389-3.231 3.424-4.177.995-.917 1.765-1.616 1.871-2.78a7.629 7.629 0 00-.093-2.198c-.133-.829-.239-1.586.212-3.376.77-3.115 1.739-3.537 4.353-4.73l.133-.073c.69-.305.889-.451.876-.524-.053-.131-.212-.32-.438-.567-.491-.568-1.181-1.368-1.539-2.722-.531-2.037-.465-2.328-.213-3.333.133-.509.305-1.208.478-2.547.239-1.906.478-3.536.902-4.511.518-1.208 1.261-1.572 2.416-.611.398.334.73.684 1.061 1.018 1.115 1.165 2.097 2.198 5.296 1.427 2.176-.51 2.8-.83 3.317-1.107.531-.262.969-.48 2.548-.785.465-.088.969-.175 1.474-.262 2.534-.466 5.043-.917 10.139-2.227 2.826-.728 4.578-1.543 6.051-2.241 1.699-.801 3.039-1.427 5.189-1.543 3.491-.189 5.388-1.062 7.366-1.965.146-.073.318-.145.69-.32 1.048-.466 2.428-.451 3.848-.451 1.739 0 3.544.029 4.738-.873 1.088-.83 1.739-1.98 2.323-2.998.623-1.092 1.154-2.038 2.07-2.431.796-.349 1.513-.349 2.389-.335.995 0 2.176 0 3.915-.538 1.38-.437 2.893-.422 4.353-.189 2.083.349 4.047 1.135 5.268 1.717.173.087.412.189.624.291 1.924.859 3.769 1.703 4.565 5.05.452 1.907.053 3.027-.345 4.148-.345.961-.677 1.921-.345 3.478.332 1.587.836 2.402 1.593 2.78.796.408 1.964.349 3.57.175 3.132-.35 6.821-.233 8.772-.175h.411c1.792.073 1.964.611 2.601 2.663.093.335.213.728.359 1.136.398 1.193 1.46 1.571 2.8 1.528 1.46-.073 3.238-.626 4.91-1.296.876-.349 1.672-.596 2.402-.829 1.991-.64 3.424-1.106 4.512-2.925.505-.844.691-1.543.85-2.125.345-1.266.571-2.081 2.999-3.042.571-.218 1.102-.451 1.593-.655 1.446-.611 2.548-1.077 3.251-.931.717.16 1.009.771.796 2.125-.053.276-.093.567-.146.829-.345 1.979-.491 2.809 1.58 3.74 1.194.524 2.893 1.747 4.618 3.159 2.216 1.804 4.499 3.958 5.813 5.355 1.101 1.179 2.853 3.639 4.645 6.389 2.03 3.115 4.114 6.608 5.348 8.965a322.25 322.25 0 002.415 4.498c1.115 2.066 1.978 3.696 2.641 5.05.717 1.47 2.23.625 3.955-.335.411-.233.836-.451 1.234-.67 1.805-.887 2.402-.16 3.278.888.372.466.823 1.004 1.46 1.441.61.422.955.786 1.261 1.062.623.626.929.946 3.809 1.019h.437c1.965 0 3.491-.349 4.911-.684 1.42-.335 2.734-.626 4.286-.553 1.38.073 2.296.379 3.092.917.783.524 1.42 1.266 2.23 2.198.332.378.677.786 1.088 1.237 1.898 2.052 3.65 3.798 5.932 6.098.518.509 1.075 1.062 1.659 1.644 1.513 1.543 3 2.343 4.499 2.62 1.5.276 3.026 0 4.619-.611 1.685-.67 2.999-.946 4.021-.888 1.075.058 1.858.495 2.402 1.222.225.291.451.699.677 1.15.796 1.485 1.937 3.639 5.043 4.177 1.99.364 4.91-.946 7.63-2.561 2.761-1.645 5.282-3.624 6.424-4.527 1.473-1.164 2.428-1.237 3.822-1.353.876-.058 1.937-.131 3.45-.539 1.911-.509 3.53-1.077 4.911-1.804 1.367-.713 2.508-1.572 3.463-2.664 1.035-1.164 2.442-1.906 3.862-2.183 1.487-.291 2.986-.072 4.101.67.969.626 1.805.888 2.827.946 1.061.029 2.349-.16 4.193-.466.452-.073.916-.145 1.367-.233 2.827-.509 4.247-.757 6.981 1.281 1.194.888 1.977 1.79 2.681 2.605 1.088 1.266 2.017 2.314 4.061 2.824 1.632.407 2.309-.001 2.972-.379.77-.451 1.54-.902 3.345-.48 1.619.393 2.322.786 3.079 1.208.836.465 1.738.989 4.167 1.586 2.097.509 4.101.582 5.773.364 1.871-.247 3.304-.859 3.968-1.601a2.98 2.98 0 00.318-.451c.465-.786.796-1.994.81-3.216.026-1.208-.226-2.416-.943-3.26a3.58 3.58 0 00-.464-.466l-.08-.058c-2.521-1.965-3.57-2.78-2.667-6.171.212-.844.292-1.499.372-2.067.185-1.601.292-2.43 2.826-4.046 1.925-1.208 2.694-1.63 3.61-2.095.65-.35 1.367-.728 2.628-1.456 1.579-.931 3.065-1.15 4.591-.946 1.5.204 3.066.83 4.831 1.587 1.168.509 1.978.887 2.668 1.193 1.353.626 2.256 1.048 4.605 1.863 1.619.567 3.105.655 4.339.728 1.5.087 2.681.145 3.384 1.004.73.887.85 1.688 1.036 2.925.132.888.292 2.008.769 3.58.571 1.863 1.394 3.551 2.482 4.905.995 1.222 2.203 2.183 3.636 2.721 2.641.99 5.269.51 7.764.044.438-.087.863-.16 1.234-.218 1.699-.291 4.711-.568 7.525-.539 2.017.029 3.928.248 5.162.742 1.46.597 3.146.554 4.911.51 1.619-.044 3.304-.102 4.95.349 1.725.451 3.079.917 4.313 1.601 1.247.684 2.362 1.615 3.57 3.027 1.154 1.325 2.627 2.416 4.618 3.275 2.017.873 4.552 1.513 7.764 1.935 5.321.714 9.356-.407 12.13-1.178.57-.161 1.114-.306 1.579-.422 1.181-.277 1.977-.335 2.72-.408 1.036-.087 2.004-.16 3.796-.771 2.03-.684 3.636-2.023 4.924-3.1.69-.568 1.273-1.063 1.844-1.383l.398-.233c1.46-.858 2.946-1.717 5.468-2.183 1.155-.204 2.137-.873 2.999-1.47 1.142-.786 2.137-1.455 3.291-1.048.983.335 1.845.932 2.602 1.645.743.699 1.393 1.514 1.95 2.299.438.626 1.62.35 2.986.059 1.42-.306 3.026-.655 4.433-.16 2.508.887 5.335 2.285 6.981 3.1l.676.32c.704.32 2.827 1.266 4.008 1.761 1.075.465 1.195.029 1.195.029v-.029l.026-.029c1.062-1.951 2.217-2.169 3.769-2.46 1.155-.218 2.562-.495 4.34-1.659 3.291-2.154 3.371-2.707 3.782-5.545.08-.582.173-1.266.305-2.008.598-3.45 1.593-4.614 3.185-6.506.691-.815 1.513-1.775 2.456-3.144a26.303 26.303 0 012.999-3.638c.876-.902 1.274-1.324 1.38-2.576.093-1.208.106-2.329-.093-3.493-.199-1.164-.624-2.416-1.433-3.857-1.5-2.721-.969-3.507.65-5.923.332-.495.717-1.062 1.141-1.746 2.004-3.26 3.557-2.955 6.344-2.416.624.116 1.314.247 2.11.349 1.46.189 3.716-.218 6.277-.684 4.433-.83 9.794-1.805 13.869-.146l.239.102c2.68 1.092 3.755 1.529 4.392 1.703.412.131.664.131 1.075.16.372.029.876.044 1.726.16 2.694.35 4.591 3.464 6.317 6.302.53.873 1.035 1.717 1.539 2.445 1.155 1.616 1.314 3.813 1.5 6.229.172 2.285.358 4.774 1.433 7.044 1.115 2.343 2.123 4.453 3.411 6.971a341.439 341.439 0 004.936 9.227c2.894 5.24 5.402 4.905 7.658 4.614 1.009-.131 1.991-.277 2.946.043l.226.088c2.999 1.004 5.069 1.688 8.506 6.345 3.013 4.09 3.703 6.229 4.539 8.82.12.364.239.756.412 1.222.504 1.499 1.167 2.46 2.057 3.202.902.742 2.057 1.266 3.49 1.877 1.393.583 2.946.597 4.671.248 1.739-.379 3.65-1.135 5.707-2.067a37.938 37.938 0 016.861-2.401c2.031-.51 4.048-.786 5.932-.786h.452c1.141-.029 2.76-.742 2.76-.742l.265-.117.16.277c.451.728.69 1.906.53 3.376-.132 1.165-.504 2.562-1.247 4.075-.757 1.558-1.42 2.503-2.017 3.348-.651.931-1.221 1.746-1.779 3.172-.331.83-.65 1.63-.955 2.46-.73 1.863-1.54 3.915-3.039 7.553-.226.568-.451 1.121-.664 1.645-1.698 4.177-2.641 6.52-6.105 8.441-3.052 1.703-3.861 1.528-6.516.946a41.348 41.348 0 00-2.601-.524c-3.543-.626-3.742-.349-4.472.582-.266.349-.611.786-1.141 1.31-.545.524-.757.931-.757 1.31 0 .407.252.8.571 1.295.385.611.836 1.324 1.181 2.343.478 1.47.717 2.503.717 3.711 0 1.208-.239 2.518-.717 4.599-.518 2.271-.465 3.77-.411 5.152 0 .408.013.786.013 1.179 0 .684-.027 1.383-.173 2.183-.265 1.485-.982 2.649-1.937 3.435-.797.669-1.779 1.048-2.84 1.135.331.655.637 1.572.836 2.503.252 1.077.358 2.198.199 2.998l.132-.029c3.385-1.033 3.77-2.372 5.481-5.428 1.726-3.056 2.748-6.986 5.534-5.21 2.787 1.775 2.469 4.351 5.296 5.69 2.826 1.339 4.738-.378 7.883-2.037 3.158-1.66 5.056-2.678 8.692-5.691 3.623-2.998 3.716-6.869 7.021-9.3 3.304-2.416 7.445-8.834 9.077-10.813 1.619-1.994 5.853-6.506 7.671-9.518 1.818-2.998 4.22-8.5 6.635-12.138 2.416-3.653 5.455-8.63 7.034-10.129 1.579-1.499 4.419-2.3 5.441-4.614 1.022-2.314-.186-2.794.611-8.441.783-5.632 1.022-5.37.743-8.863-.292-3.493-.81-6.695-.531-9.809.279-3.115 2.734-8.005 4.791-10.159 2.044-2.139 3.344-4.933 1.898-7.961-1.447-2.998-.929-2.517-.836-5.472.092-2.94 2.057-6.112 0-7.844-2.057-1.747-3.438-1.616-4.99-3.799-1.553-2.183-3.464-4.177-4.632-5.821-1.194-1.645-2.76-.728-4.95-.67-2.177.058-3.344-1.877-4.99.277-1.646 2.139-1.367 4.613-3.185 6.796-1.818 2.169-5.892 1.121-5.799-.887.092-2.023.729-2.766.252-4.483-.465-1.717-.996-2.198-1.739-2.037-.743.16-.743 1.979-1.3 4.162-.558 2.183-2.88.96-3.557-.131-.677-1.106.464-3.595.358-5.953-.119-2.357-.836-1.484-2.866-3.041-2.044-1.557-2.973-.058-6.742.8-3.756.859-3.57-1.557-3.424-3.434.133-1.878 2.734-2.838 5.574-4.454 2.827-1.601 5.428-5.254 8.732-6.826 3.305-1.557 5.999-4.235 8.308-7.786 2.322-3.536 4.671-8.033 6.304-9.954 1.619-1.936 2.826-1.296 5.374-3.115 2.562-1.834 2.801-3.173 5.667-4.57 2.88-1.397 2.973-3.536 3.769-6.927.797-3.391 2.323-2.635 5.335-3.974 3.026-1.338 4.088-4.031 6.689-7.145 2.601-3.115 10.524-4.701 13.775-2.926 3.252 1.776 5.84-.858 10.126-.975 4.273-.102 3.477 3.493 7.007 3.231 3.544-.276 2.469-4.351 5.388-3.274 2.933 1.077 4.048 2.095 7.246 1.077 3.212-1.034 3.623-1.776 5.8.101 2.19 1.878 3.888.568 5.322-1.804 1.433-2.358.982-4.512 3.954-4.57 2.973-.044 5.521 3.114 7.565 4.09 2.044.96 4.034-2.576 5.945-.976 1.898 1.616 6.45 4.25 3.995 4.832-2.469.597-5.163-.043-5.441 1.616-.279 1.659 2.097 3.318 5.574 2.037 3.477-1.295 4.591-.64 6.781-.378 2.177.276 2.601-2.838 4.831-3.857 2.229-1.019 3.57 2.256 5.295 2.3 1.712.058 1.432-1.237 4.462-1.761 3.02-.539 4.4-1.994 2.23-3.77-2.18-1.761-4.6-1.761-4.98-3.536-.37-1.776 2.38-4.032 3.49-7.044 1.12-3.013 5.73-4.279 8.24-5.836 2.51-1.558 1.21-2.897 3.03-4.134 1.82-1.222 2.84-5.53 5.05-7.684 2.23-2.139 6.08-3.013 10.58-3.333 4.51-.32 5.38-2.503 8.3-2.125 2.91.379 1.85 2.635 3.71 3.712 1.86 1.062 3.25-2.314 4-.481.74 1.82-1.86 4.454-2.33 5.909-.46 1.455.28 4.614 1.99 3.711 1.73-.917 1.68.801 1.17 2.897-.52 2.095 1.21 2.095 3.53.8 2.32-1.295 3.53-2.896 6.04-6.011 2.51-3.114 4.87-4.395 8.23-5.748 3.34-1.339 3.66.698 4.27-.641.61-1.339-.13-2.634.37-5.85.51-3.217.69-5.312 5.06-6.069 4.35-.757 5.57-3.231 8.45-1.237 2.87 1.979 1.53 2.838-1.35 3.536-2.88.699-3.28.888-4.11 4.759-.84 3.857-1.3 4.614-2.14 7.044-.84 2.416 1.72 3.217.28 4.294-1.44 1.077-.79 1.237-3.2 4.351-2.42 3.115-5.39 2.14-8.87 4.395-3.49 2.256-6.99 7.554-8.97 9.271-1.97 1.717-5.89 4.381-8.19 6.928-2.29 2.561-4.53 5.705-6.33 8.179-1.77 2.474-3.49 4.322-6.06 6.825-2.58 2.504-5.06 2.344-6.78 3.333-1.73 1.004-3.9 2.198-5.54 2.096-1.62-.116-1.88 1.324-1.76 3.056.12 1.747.17 2.111-2.8 5.865-2.97 3.755-5.67 9.577-6.5 14.51-.84 4.934-.18 16.009 1.58 22.137 1.76 6.127.41 8.382 1.15 13.112.74 4.716 3.03 6.549 4.09 11.338 1.07 4.773-.14 8.543 1.07 10.376 1.21 1.82-.13 2.94.84 3.755.97.801 1.35-1.615 4.31-3.813 2.97-2.197 6.05-6.476 6.7-8.092.65-1.601 2.92-5.37 2.7-8.222-.24-2.838 2.45-6.128 5.53-6.608 3.07-.495 4.59.903 5.84-.058 1.26-.975-.69-6.011-.28-9.14.41-3.114 2.17-5.457 4.53-7.495 2.36-2.037 4.46.058 9.19-.742 4.74-.815 3.85-2.911 2.7-7.146-1.16-4.235-.8-5.414 0-8.499.79-3.057 2.36-5.691 4.27-4.556 1.91 1.121 4.79 2.838 5.48-.48.71-3.333.08-5.297-1.83-7.044-1.9-1.746-1.58-3.202-1.42-6.011.17-2.823 3.62-3.653 1.86-6.068-1.77-2.416-4.75-.975-6.84-1.252-2.08-.262-1.61-1.936-1.31-4.453.33-2.518 1.62-5.749 4.31-7.525 2.7-1.775 5.34-3.332 5.67-8.004.33-4.672 1.26-4.177 1.77-5.691.51-1.499 2.44-3.085 3.27-1.717.84 1.368 2.27 1.746 2.63-.16.35-1.907 1.83-2.576 2.83-.262.99 2.314 3.41 2.838 4.34.058.91-2.794 3.21-2.081 5.07-4.235 1.86-2.154 3.62-3.173 3.3.684-.33 3.871-.65 6.928 1.02 5.268 1.68-1.659 4.18-4.729 7.77-7.087 3.57-2.358 7.77-2.285 10.84-2.925 3.07-.655 6.65.582 8.55 4.715 1.89 4.133 4.68 4.351 5.2 1.834.5-2.533 2.92-3.551 5.2-5.211 2.27-1.659 3.25-4.031 6.73-3.652 3.49.378 5.72-1.456 8.47-5.473 2.73-4.031 6.19-6.418 9.02-6.534 2.84-.102 6.93-3.217 11.15-5.414 4.23-2.198 6.46-1.936 8.23-4.235 1.76-2.314 3.9-4.628 7.89-3.115 4 1.499 7.53 4.876 11.47 4.235 3.94-.64 4.95-2.561 4.34-5.501-.61-2.954-2.1-4.468-4.98-8.005-2.86-3.536-.69-4.191-1.25-7.305-.57-3.115-2.65-5.909-5.62-3.974-2.98 1.921-3.53-.756-7.14-2.896-3.63-2.154-4.93-1.353-3.96-4.672.98-3.332 6.4-2.124 8.85.03 2.47 2.154 6.69 2.677 9.9 1.935 3.2-.757 5.9-2.576 9.28-5.05 3.39-2.459 4.13-2.416 4.09-5.69-.05-3.275-3.31-2.78-3.44-5.633-.13-2.838 2.79-1.935 3.48-4.773.69-2.838 1.39-2.154 3.71-.641 2.33 1.499 4.46-3.012 4.52-.538.05 2.459-2.88 3.216-2.7 5.69.19 2.46 2.14 2.416 3.03 5.312.87 2.897 3.46.728 5.92.466 2.47-.276 3.1-1.397 6-1.935 2.89-.539 5.76.582 8.02 5.21 2.29 4.613 2.65 6.927 6.08 6.505 3.44-.436 6.88 2.358 9.39 5.312 2.5 2.955 5.94 3.595 8.17 1.179 2.23-2.416-.69-6.549 2.97-8.659 3.67-2.096 2.25-3.362 1.18-5.72-1.06-2.358-.74-7.088 1.62-4.395 2.38 2.678 6.1 1.441 8.74.32 2.64-1.135 3.94-2.416 4.73-5.05.8-2.62 4.79-1.397 4.32-3.114l.05.029z" fill="#EEE"/></svg>